<svg xmlns="http://www.w3.org/2000/svg" width="120" height="120" viewBox="0 0 120 120" fill="none"><path fill-rule="evenodd" clip-rule="evenodd" d="M48.5038 90.5346C48.5992 90.4488 48.6767 90.3444 48.7319 90.2286C48.7871 90.1128 48.8188 89.9874 48.8252 89.859C48.8317 89.7306 48.8128 89.6022 48.7696 89.4816C48.7264 89.3604 48.6597 89.2494 48.5734 89.1546C46.0822 86.4186 43.7506 83.5542 41.281 80.7996C41.1097 80.6088 40.8791 80.481 40.6264 80.4378C40.3737 80.394 40.1137 80.4372 39.8884 80.5596C28.6084 86.7042 17.4076 93.0852 5.74841 98.5524C5.61113 98.6166 5.4906 98.712 5.39616 98.8308C5.30173 98.9496 5.23594 99.0888 5.2039 99.237C5.17186 99.3852 5.17444 99.5388 5.21144 99.6858C5.24843 99.8334 5.31884 99.9696 5.41721 100.085L17.386 114.079C17.555 114.277 17.7848 114.413 18.0394 114.467C18.2941 114.52 18.5593 114.488 18.7936 114.375C22.8136 112.445 26.29 109.351 29.6938 106.631C36.1798 101.445 42.3484 96.06 48.5038 90.5346Z" fill="#190D39"></path><path fill-rule="evenodd" clip-rule="evenodd" d="M50.0737 67.8744C50.0005 67.7742 49.8907 67.707 49.7681 67.6872C49.6456 67.668 49.5202 67.698 49.4197 67.7706C48.856 68.2968 48.2611 68.7888 47.6383 69.2436C47.3275 68.4036 46.0849 66.9636 44.8333 66.9426C43.8991 66.9258 42.9133 67.6248 42.2095 69.3948C41.7103 70.5312 41.4607 71.7618 41.4775 73.0032C41.4487 73.4754 41.2603 77.6322 41.2531 78.1032C41.2459 78.5232 41.2759 78.9432 41.2597 79.3548C41.2518 79.4808 41.2941 79.6044 41.3776 79.6992C41.461 79.794 41.5786 79.8516 41.7046 79.8594C41.8305 79.8678 41.9545 79.8252 42.0492 79.7418C42.1438 79.6584 42.2016 79.5408 42.2095 79.4148C42.2431 79.017 42.2977 78.6168 42.3139 78.21C42.3673 76.7358 42.1813 75.8598 42.3775 73.4736C42.4261 72.831 42.5334 72.195 42.6979 71.5722C42.7998 70.9476 42.94 70.3302 43.1179 69.7236C43.5565 68.3922 44.1439 67.725 44.8321 67.7106C45.7633 67.692 46.4131 68.82 46.8571 69.8106C46.2744 70.2084 45.7178 70.6434 45.1909 71.1126C45.0966 71.1924 45.0369 71.3058 45.0246 71.4282C45.0122 71.5512 45.048 71.6742 45.1245 71.7714C45.2011 71.868 45.3123 71.9316 45.4347 71.9484C45.5571 71.9646 45.6811 71.9334 45.7807 71.8602C46.5787 71.3874 48.9685 69.2766 49.9681 68.5248C50.0675 68.4516 50.1343 68.343 50.154 68.2212C50.1738 68.0994 50.145 67.9746 50.0737 67.8744Z" fill="#190D39"></path><path fill-rule="evenodd" clip-rule="evenodd" d="M48.2211 68.0232C48.8582 67.3998 49.5866 66.8772 50.3811 66.4728C50.6351 66.36 50.8985 66.27 51.1683 66.204C52.1787 65.937 52.7241 66.7854 52.9143 67.8126C53.0964 68.9706 53.0467 70.1538 52.7679 71.2926C52.7616 71.3538 52.7676 71.4156 52.7853 71.475C52.8031 71.5338 52.8323 71.589 52.8713 71.6364C52.9103 71.6844 52.9584 71.724 53.0127 71.7528C53.067 71.7822 53.1266 71.8002 53.1879 71.8062C53.2489 71.8128 53.3107 71.808 53.3696 71.7906C53.4286 71.7732 53.4836 71.7444 53.5313 71.706C53.579 71.6676 53.6186 71.6196 53.6477 71.5656C53.6768 71.5116 53.6949 71.4522 53.7009 71.391C53.8851 69.0618 53.8617 67.9032 53.6877 67.047C53.0331 63.828 49.2999 65.6796 48.2343 66.606C47.9781 66.8436 47.7416 67.1016 47.5269 67.3776C47.4459 67.4706 47.4042 67.5918 47.4108 67.7154C47.4174 67.8384 47.4716 67.9548 47.562 68.0388C47.6525 68.1228 47.7721 68.1684 47.8956 68.166C48.0191 68.1642 48.1369 68.1138 48.2241 68.0262L48.2211 68.0232Z" fill="#190D39"></path><path fill-rule="evenodd" clip-rule="evenodd" d="M53.9849 75.8694C53.9597 75.9252 53.9456 75.9852 53.9436 76.0464C53.9416 76.1082 53.9518 76.1688 53.9734 76.2264C53.995 76.284 54.0277 76.3362 54.0696 76.3812C54.1115 76.4256 54.1619 76.4622 54.2177 76.4874C54.2736 76.5126 54.3339 76.5264 54.3952 76.5288C54.4565 76.5306 54.5176 76.5204 54.575 76.4988C54.6323 76.4772 54.6849 76.4448 54.7297 76.4028C54.7744 76.3608 54.8105 76.3104 54.8357 76.2546C56.0009 73.758 56.6717 70.5138 55.1429 68.355C55.1123 68.3004 55.0711 68.2524 55.0219 68.214C54.9727 68.1756 54.9163 68.1468 54.856 68.13C54.7958 68.1132 54.7328 68.109 54.6707 68.1162C54.6087 68.124 54.5488 68.1438 54.4943 68.175C53.4413 68.7732 56.4977 70.2852 53.9849 75.8694Z" fill="#190D39"></path><path fill-rule="evenodd" clip-rule="evenodd" d="M56.8132 72.3816C56.7868 73.8414 56.734 76.6098 55.9192 78.3936C55.8917 78.4488 55.8757 78.5094 55.8719 78.5718C55.8682 78.6336 55.8769 78.6954 55.8975 78.7542C55.9181 78.813 55.9502 78.8664 55.9919 78.9126C56.0337 78.9582 56.0842 78.9954 56.1404 79.0218C56.1967 79.0482 56.2577 79.0626 56.3197 79.065C56.3817 79.0674 56.4436 79.0572 56.5016 79.035C56.5597 79.0128 56.6128 78.9798 56.6577 78.9366C56.7026 78.894 56.7386 78.8424 56.7634 78.786C57.658 76.3296 58.2292 74.8554 57.7582 72.2832C57.7532 72.2196 57.7356 72.1584 57.7064 72.102C57.6773 72.0456 57.6372 71.9958 57.5885 71.955C57.5398 71.9148 57.4833 71.8842 57.4227 71.8656C57.3621 71.8476 57.2983 71.8416 57.2353 71.8476C57.1723 71.8542 57.1111 71.8734 57.0556 71.904C57.0001 71.9346 56.9512 71.976 56.9118 72.0258C56.8725 72.0756 56.8435 72.1326 56.8266 72.1938C56.8096 72.2544 56.8051 72.3186 56.8132 72.3816Z" fill="#190D39"></path><path fill-rule="evenodd" clip-rule="evenodd" d="M58.9857 76.1268C58.8453 76.5132 58.6737 76.8852 58.5357 77.2704C58.2183 78.1566 57.9711 79.0602 57.5757 79.9104C57.05 81.0228 56.326 82.0308 55.4391 82.884C54.0847 84.405 52.5003 85.7046 50.7435 86.7354C50.1621 87.0954 49.5435 87.4062 48.9471 87.7722C48.8428 87.8394 48.7694 87.945 48.7431 88.0662C48.7168 88.1874 48.7396 88.314 48.8067 88.4184C48.8738 88.5228 48.9796 88.596 49.1007 88.6224C49.2219 88.6488 49.3486 88.626 49.4529 88.5588C50.0613 88.149 50.6409 87.7128 51.2397 87.318C52.7068 86.4234 54.116 85.4376 55.4589 84.3654C56.1504 83.8116 56.7348 83.136 57.1833 82.3722C57.6513 81.7224 58.0569 81.0306 58.3947 80.3046C59.0501 79.0818 59.5513 77.7822 59.8869 76.4364C59.9076 76.3776 59.9164 76.3152 59.9128 76.2528C59.9092 76.1904 59.8934 76.1292 59.8662 76.0728C59.839 76.017 59.8009 75.9666 59.7543 75.9252C59.7076 75.8838 59.6532 75.852 59.5941 75.8316C59.4743 75.7908 59.3431 75.7986 59.2291 75.8538C59.1151 75.909 59.0277 76.0074 58.9857 76.1268Z" fill="#190D39"></path><path fill-rule="evenodd" clip-rule="evenodd" d="M64.3921 48.8452C62.9851 47.902 60.2599 48.1414 57.2635 46.87C53.4271 45.2458 51.7687 42.4552 50.1175 38.6152C49.8571 38.0116 49.5775 37.3786 49.3159 36.6952C49.2737 36.5758 49.186 36.4781 49.0718 36.4234C48.9577 36.3688 48.8265 36.3618 48.7072 36.4039C48.5878 36.446 48.49 36.5337 48.4354 36.6479C48.3808 36.7621 48.3737 36.8932 48.4159 37.0126C48.6469 37.7284 48.8725 38.407 49.1359 39.0322C50.2381 41.7161 51.9178 44.1243 54.0559 46.0858C56.4559 48.1348 58.2181 48.4972 61.2745 48.8734C62.2051 48.9055 63.1195 49.1221 63.9655 49.5106C65.1625 50.2696 65.6653 51.0202 65.5069 51.6988C65.2249 52.9054 63.3073 53.116 63.1021 53.2372C62.8357 52.5631 62.5039 51.9168 62.1115 51.3076C62.0569 51.1938 61.9591 51.1064 61.8403 51.0646C61.7209 51.0228 61.5901 51.03 61.4761 51.0847C61.3627 51.1393 61.2751 51.2369 61.2331 51.356C61.1917 51.4751 61.1989 51.606 61.2535 51.7198C61.9201 53.782 62.8429 54.9172 63.5935 56.5342C63.6457 56.6436 63.7381 56.7285 63.8521 56.771C63.9655 56.8135 64.0909 56.8102 64.2025 56.7619C64.3135 56.7136 64.4017 56.624 64.4479 56.5121C64.4947 56.4001 64.4959 56.2744 64.4515 56.1616C64.0021 55.5006 63.6343 54.7881 63.3547 54.0394C66.9157 53.0998 67.2385 50.6722 64.3921 48.8452Z" fill="#190D39"></path><path fill-rule="evenodd" clip-rule="evenodd" d="M64.4703 54.9358C65.1147 55.9152 65.5041 57.0401 65.6031 58.2082C65.6433 59.2534 64.6965 59.6002 63.6519 59.5612C62.4837 59.4849 61.3419 59.1791 60.2919 58.6612C60.1743 58.6218 60.046 58.6307 59.9347 58.6859C59.8235 58.7411 59.7388 58.8382 59.6991 58.9558C59.6792 59.0138 59.6708 59.0752 59.6748 59.1364C59.6787 59.1977 59.6947 59.2576 59.722 59.3125C59.7492 59.3675 59.7871 59.4165 59.8334 59.4567C59.8798 59.4969 59.9337 59.5275 59.9919 59.5468C60.2667 59.6314 62.5876 60.2538 63.154 60.357C65.7448 60.8316 66.6339 59.8336 66.5427 58.1632C66.5247 57.8458 66.2427 56.353 66.2265 56.2882C66.0807 55.5815 65.7453 54.9277 65.2563 54.397C65.1849 54.2928 65.0745 54.2214 64.9503 54.1984C64.8261 54.1754 64.6977 54.2027 64.5939 54.2743C64.4895 54.3459 64.4181 54.4559 64.3953 54.5803C64.3719 54.7045 64.3996 54.8328 64.471 54.937L64.4703 54.9358Z" fill="#190D39"></path><path fill-rule="evenodd" clip-rule="evenodd" d="M62.0467 61.053C60.8221 61.1646 59.5884 60.9738 58.4546 60.4974C57.3208 60.021 56.3213 59.2731 55.5439 58.3201C55.5001 58.2772 55.4484 58.2433 55.3915 58.2204C55.3346 58.1975 55.2738 58.1859 55.2124 58.1865C55.1511 58.1871 55.0905 58.1997 55.0341 58.2238C54.9777 58.2478 54.9265 58.2827 54.8836 58.3265C54.8407 58.3702 54.8068 58.422 54.7839 58.4789C54.7609 58.5357 54.7494 58.5966 54.75 58.6579C54.7506 58.7192 54.7632 58.7798 54.7872 58.8362C54.8112 58.8926 54.8461 58.9438 54.8899 58.9867C56.8939 60.6666 59.5819 62.703 62.2033 61.9866C62.2651 61.9764 62.3239 61.9542 62.3767 61.9212C62.4295 61.8882 62.4757 61.845 62.5117 61.794C62.5483 61.743 62.5741 61.686 62.5879 61.6248C62.6023 61.5642 62.6041 61.5012 62.5939 61.4394C62.5837 61.3782 62.5615 61.3188 62.5285 61.266C62.4949 61.2132 62.4523 61.167 62.4013 61.131C62.3503 61.0944 62.2927 61.0686 62.2321 61.0548C62.1715 61.0404 62.1085 61.0386 62.0467 61.0488V61.053Z" fill="#190D39"></path><path fill-rule="evenodd" clip-rule="evenodd" d="M58.02 62.796C55.884 61.8408 54.4122 61.6908 52.8414 59.6163C52.801 59.5689 52.7516 59.5302 52.6961 59.5023C52.6406 59.4744 52.58 59.4579 52.5179 59.4538C52.4559 59.4497 52.3937 59.458 52.335 59.4783C52.2762 59.4986 52.2221 59.5305 52.1759 59.572C52.1297 59.6136 52.0922 59.664 52.0658 59.7203C52.0393 59.7765 52.0244 59.8374 52.0219 59.8996C52.0194 59.9617 52.0293 60.0234 52.0511 60.0816C52.073 60.1398 52.1062 60.1932 52.149 60.2382C54.0552 62.0202 55.1958 63.1272 57.7398 63.7068C57.8591 63.7398 57.9866 63.7254 58.0952 63.666C58.2038 63.6066 58.285 63.507 58.3215 63.3888C58.358 63.2706 58.3469 63.1422 58.2906 63.0324C58.2343 62.922 58.1372 62.838 58.02 62.7978V62.796Z" fill="#190D39"></path><path fill-rule="evenodd" clip-rule="evenodd" d="M54.2123 63.6732C50.0567 61.0512 49.4123 60.3846 48.3839 58.6233C47.5561 57.1667 46.8243 55.6575 46.1933 54.1053C45.3605 52.2723 40.9493 43.4145 39.2405 41.0577C39.2039 41.0085 39.158 40.967 39.1054 40.9355C39.0527 40.904 38.9945 40.8831 38.9338 40.8741C38.8731 40.8652 38.8112 40.8683 38.7518 40.8832C38.6923 40.8981 38.6363 40.9246 38.5871 40.9611C38.5378 40.9977 38.4962 41.0436 38.4647 41.0963C38.4332 41.1489 38.4124 41.2072 38.4035 41.2679C38.3945 41.3285 38.3975 41.3904 38.4125 41.4498C38.4274 41.5094 38.4539 41.5653 38.4905 41.6145C41.7905 45.9765 43.4495 50.8971 45.1085 54.3843C45.5633 55.3389 47.2685 58.6029 48.0677 59.8515C48.748 60.9408 49.647 61.8768 50.7077 62.6004C51.6677 63.2946 52.6734 63.9234 53.7179 64.4826C53.771 64.5162 53.8303 64.5384 53.8923 64.5492C53.9543 64.5594 54.0178 64.5576 54.079 64.5438C54.1403 64.5294 54.1981 64.503 54.2492 64.4664C54.3002 64.4298 54.3434 64.383 54.3764 64.3296C54.4094 64.2762 54.4313 64.2168 54.4411 64.1544C54.4509 64.0926 54.4482 64.029 54.4333 63.9678C54.4184 63.9066 54.3914 63.849 54.3541 63.7986C54.3168 63.7482 54.2698 63.705 54.2159 63.6732H54.2123Z" fill="#190D39"></path><path fill-rule="evenodd" clip-rule="evenodd" d="M50.5852 33.6713C46.4854 19.3679 47.491 20.4743 44.1256 5.45567C44.0969 5.33355 44.0216 5.22751 43.9158 5.16023C43.8099 5.09295 43.6819 5.06978 43.5592 5.09567C43.4982 5.10876 43.4404 5.13377 43.389 5.16926C43.3377 5.20475 43.2939 5.25002 43.2601 5.30247C43.2264 5.35493 43.2033 5.41354 43.1922 5.47493C43.1811 5.53633 43.1823 5.59931 43.1956 5.66027C43.4872 7.06485 43.7428 8.34226 43.9756 9.51886C40.0156 11.3633 35.7592 12.2339 28.5556 17.9615C28.0341 18.3643 27.5622 18.8275 27.1498 19.3415C26.6364 17.9683 26.2252 16.5591 25.9198 15.1253C25.8934 15.0067 25.822 14.9031 25.7206 14.8363C25.6192 14.7695 25.4958 14.7447 25.3765 14.7674C25.2571 14.79 25.1513 14.8581 25.0814 14.9574C25.0114 15.0567 24.9829 15.1793 25.0018 15.2993C26.0218 20.4965 33.6034 36.2537 36.3238 41.2067C36.3553 41.2614 36.3973 41.3094 36.4474 41.348C36.4975 41.3864 36.5547 41.4147 36.6158 41.431C36.6768 41.4473 36.7405 41.4515 36.8031 41.4431C36.8658 41.4348 36.9261 41.4142 36.9808 41.3825C40.9732 39.0791 45.2662 37.2245 50.3608 34.2179C50.4538 34.1648 50.5264 34.0823 50.5671 33.9832C50.6078 33.8841 50.6141 33.7743 50.5852 33.6713ZM27.5332 20.3933C30.7264 16.9439 38.0986 12.6533 42.133 11.1443C42.8026 10.8923 43.48 10.6643 44.1532 10.4135C44.296 11.1371 45.4168 16.6823 45.8074 18.5033C38.1796 21.7763 38.8522 21.1037 35.2198 23.4119C31.9942 25.4519 31.2826 26.0663 30.2734 27.0551C29.3236 24.9227 28.3426 22.5731 27.5332 20.3933ZM30.6886 27.9833C31.0426 27.6779 31.4158 27.3959 31.7722 27.0989C32.6722 26.3573 33.547 25.6031 34.5046 24.9587C37.3483 23.2376 40.3023 21.7056 43.3474 20.3729C44.3554 19.9529 44.8048 19.7969 46 19.3955C46.237 20.4833 47.38 25.4009 47.782 26.9777C47.074 27.2639 46.3804 27.5777 45.682 27.8837C40.0876 30.3527 40.732 30.1427 37.33 32.3969C36.1302 33.1043 35.0233 33.9584 34.0348 34.9397C32.884 32.6747 31.7536 30.3341 30.6886 27.9833ZM36.9142 40.3157C36.1558 38.9813 35.3386 37.4747 34.5088 35.8685C36.4048 34.0203 38.5824 32.485 40.96 31.3199C43.7866 29.6795 44.989 28.7885 48.0064 27.8489C48.4384 29.5127 48.9448 31.3823 49.5634 33.5687C47.3308 34.7825 40.993 37.9127 36.9142 40.3157Z" fill="#190D39"></path><path fill-rule="evenodd" clip-rule="evenodd" d="M54.899 44.5837C56 41.3785 52.5854 40.8439 49.5116 42.1885C48.0115 42.8752 46.5808 43.7042 45.239 44.6641C43.4967 46.0704 42.0179 47.7748 40.8716 49.6981C39.3884 52.2181 41.2862 54.6265 44.363 53.8183C44.422 53.8019 44.4773 53.7741 44.5257 53.7364C44.574 53.6987 44.6144 53.6518 44.6447 53.5985C44.6749 53.5451 44.6944 53.4863 44.7019 53.4255C44.7094 53.3647 44.7048 53.3029 44.6885 53.2438C44.6721 53.1847 44.6443 53.1294 44.6066 53.0811C44.5688 53.0327 44.522 52.9923 44.4686 52.9621C44.4152 52.9318 44.3565 52.9124 44.2956 52.9049C44.2347 52.8974 44.173 52.9019 44.114 52.9183C41.504 53.6797 40.4438 51.8827 41.5586 50.1145C42.5777 48.5738 43.8303 47.201 45.2714 46.0453C46.9622 44.6455 47.9318 43.8475 49.8746 43.0261C50.999 42.5509 52.5146 42.3319 53.4584 42.6835C54.0254 42.8941 54.29 43.3897 54.0026 44.2843C53.9627 44.4037 53.972 44.5339 54.0283 44.6464C54.0845 44.759 54.1832 44.8445 54.3026 44.8843C54.4219 44.9241 54.5522 44.9148 54.6647 44.8586C54.7772 44.8023 54.8627 44.7037 54.9026 44.5843L54.899 44.5837Z" fill="#190D39"></path><path fill-rule="evenodd" clip-rule="evenodd" d="M54.1765 43.9677C54.4507 43.5031 54.5572 42.9585 54.478 42.4249C54.3988 41.8912 54.1388 41.401 53.7415 41.0361C53.0215 40.3959 51.6883 40.0641 49.6615 40.4013C47.8506 40.7657 46.086 41.3314 44.4007 42.0879C42.7383 42.9093 41.2249 44.0028 39.9229 45.3231C38.7571 46.5231 38.3407 48.1047 39.0277 49.1421C39.5377 49.9125 40.6999 50.4915 42.8185 50.2461C42.8793 50.2382 42.938 50.2184 42.9912 50.1879C43.0444 50.1573 43.091 50.1166 43.1285 50.068C43.1659 50.0194 43.1934 49.9639 43.2094 49.9047C43.2254 49.8455 43.2296 49.7837 43.2217 49.7229C43.2138 49.662 43.194 49.6033 43.1635 49.5502C43.1329 49.497 43.0922 49.4503 43.0436 49.4129C42.9951 49.3755 42.9396 49.348 42.8803 49.332C42.8211 49.3159 42.7593 49.3118 42.6985 49.3197C41.0389 49.5525 40.0633 49.3197 39.6523 48.7197C39.1261 47.9517 39.6037 46.7787 40.5061 45.9123C41.7734 44.8096 43.1867 43.8868 44.7061 43.1703C45.0463 42.9963 46.0933 42.4281 46.9861 42.0771C48.6253 41.4327 51.0541 40.7895 52.6309 41.5545C52.8158 41.6316 52.9822 41.7471 53.1191 41.8933C53.256 42.0396 53.3604 42.2131 53.4252 42.4026C53.4901 42.5922 53.514 42.7933 53.4954 42.9927C53.4768 43.1922 53.4161 43.3854 53.3173 43.5597C53.2629 43.6736 53.256 43.8045 53.298 43.9236C53.3401 44.0426 53.4278 44.14 53.5417 44.1945C53.6556 44.2489 53.7865 44.2558 53.9056 44.2137C54.0246 44.1717 54.1221 44.084 54.1765 43.9701V43.9677Z" fill="#190D39"></path><path fill-rule="evenodd" clip-rule="evenodd" d="M84.5818 58.4258C89.8738 57.0158 92.1772 56.2058 95.8588 55.2902C96.9388 55.0214 98.0344 54.7934 99.1246 54.5144C105.278 52.9394 107.633 52.0334 114.037 51.6716C114.098 51.6673 114.158 51.6511 114.213 51.6238C114.268 51.5964 114.317 51.5585 114.357 51.5122C114.397 51.466 114.428 51.4122 114.447 51.3541C114.467 51.2959 114.475 51.2345 114.47 51.1733C114.466 51.1121 114.45 51.0524 114.423 50.9975C114.395 50.9426 114.357 50.8936 114.311 50.8534C114.265 50.8131 114.211 50.7823 114.153 50.7629C114.095 50.7434 114.033 50.7355 113.972 50.7398C111.561 50.927 107.028 51.7124 104.702 52.1798C97.6822 53.5886 97.8928 53.7434 95.6182 54.3872C88.2196 56.4818 90.106 55.799 84.322 57.5072C84.2038 57.5447 84.1054 57.6266 84.0466 57.7356C83.9884 57.8446 83.9746 57.9721 84.0082 58.0912C84.0418 58.2102 84.1204 58.3114 84.2278 58.3735C84.3346 58.4354 84.4618 58.4534 84.5818 58.4234V58.4258Z" fill="#190D39"></path><path fill-rule="evenodd" clip-rule="evenodd" d="M78.9823 71.4804C80.5939 70.3686 82.3753 69.5262 84.2569 68.9862C88.8457 67.6062 92.6257 67.6524 97.4899 67.1106C99.5245 66.8844 113.218 65.3964 114.963 65.1522C115.024 65.1432 115.082 65.1222 115.135 65.0904C115.187 65.0586 115.233 65.0172 115.269 64.968C115.306 64.9188 115.332 64.8624 115.347 64.803C115.362 64.7436 115.365 64.6818 115.356 64.6212C115.346 64.5606 115.326 64.5024 115.294 64.4496C115.262 64.3974 115.221 64.3512 115.172 64.3152C115.123 64.2786 115.066 64.2522 115.007 64.2372C114.947 64.2222 114.886 64.2198 114.825 64.2288C113.312 64.4688 111.802 64.7256 110.281 64.9212C104.533 65.6592 97.0027 65.73 87.5893 67.269C83.9293 67.869 81.1063 68.5698 78.3955 70.7334C78.3007 70.8126 78.2407 70.9254 78.2281 71.0484C78.2155 71.1708 78.2509 71.2938 78.3271 71.391C78.4033 71.4882 78.5143 71.5512 78.6367 71.568C78.7591 71.5848 78.8827 71.553 78.9823 71.4804Z" fill="#190D39"></path><path fill-rule="evenodd" clip-rule="evenodd" d="M73.395 80.5152C72.5736 81.6516 72.1044 81.6204 71.4444 81.4254C70.5624 81.1638 70.2036 79.2702 70.0956 78.3552C70.0872 78.2946 70.0668 78.2364 70.0356 78.183C70.0044 78.1302 69.9636 78.084 69.9144 78.0474C69.8658 78.0102 69.81 77.9832 69.7506 77.9676C69.6912 77.9526 69.6294 77.949 69.5688 77.9574C69.5076 77.9658 69.4494 77.9862 69.3966 78.0174C69.3438 78.048 69.297 78.0894 69.2604 78.1386C69.2232 78.1872 69.1962 78.243 69.1812 78.3024C69.1656 78.3618 69.162 78.4236 69.1704 78.4842C69.3606 79.6902 69.933 81.9642 71.0688 82.3494C74.628 83.5554 76.4088 76.3344 77.6688 72.8568C77.7132 72.7398 77.7096 72.6096 77.6598 72.495C77.6094 72.3804 77.5164 72.2898 77.4 72.2424C76.1292 71.7462 76.7328 75.8964 73.395 80.5152Z" fill="#190D39"></path><path fill-rule="evenodd" clip-rule="evenodd" d="M71.296 77.0256C70.396 77.2272 67.696 78.4446 66.2926 78.9294C66.2344 78.9486 66.1804 78.9792 66.1342 79.0194C66.0874 79.0596 66.0496 79.1088 66.022 79.1634C65.9944 79.2186 65.9782 79.278 65.974 79.3392C65.9692 79.401 65.977 79.4622 65.9962 79.5204C66.016 79.5786 66.0466 79.6326 66.0868 79.6788C66.127 79.7256 66.1756 79.7634 66.2308 79.791C66.286 79.8186 66.3454 79.8348 66.4066 79.8396C66.4678 79.8438 66.5296 79.836 66.5878 79.8168C68.0278 79.3428 70.1044 78.525 71.6308 77.9172C71.7478 77.8716 71.8426 77.7816 71.8942 77.6664C71.9458 77.5518 71.9506 77.421 71.9068 77.3034C71.8852 77.2446 71.8516 77.1912 71.8096 77.1456C71.767 77.1 71.716 77.0634 71.659 77.0376C71.602 77.0118 71.5408 76.9974 71.4784 76.9956C71.4166 76.9932 71.3542 77.0034 71.296 77.0256Z" fill="#190D39"></path><path fill-rule="evenodd" clip-rule="evenodd" d="M68.1151 80.3094C67.3249 80.7258 66.4693 81.003 65.5855 81.1296C64.1107 81.3186 63.2941 80.8788 63.9145 79.1862C64.4341 77.7672 64.8643 76.7196 65.1109 75.9186C65.1577 75.8058 65.1589 75.6792 65.1133 75.5658C65.0677 75.4524 64.9801 75.3612 64.8679 75.3114C64.7563 75.2622 64.6297 75.2586 64.5151 75.3018C64.4005 75.3444 64.3075 75.4308 64.2559 75.5412C64.1785 75.7296 63.3367 78.0084 63.1675 78.618C62.7085 80.2734 62.4697 81.7488 64.1653 82.02C65.6959 82.2942 67.2733 81.9798 68.5819 81.1398C68.6893 81.0768 68.7679 80.9742 68.8003 80.8536C68.8327 80.733 68.8165 80.6046 68.7553 80.496C68.6941 80.3874 68.5933 80.307 68.4733 80.2722C68.3539 80.2374 68.2249 80.2506 68.1151 80.3094Z" fill="#190D39"></path><path fill-rule="evenodd" clip-rule="evenodd" d="M62.7665 76.566C62.7329 73.9398 64.2401 71.6736 65.8673 70.2312C65.9129 70.1904 65.9495 70.1406 65.9759 70.0848C66.0017 70.0296 66.0167 69.9696 66.0197 69.9084C66.0227 69.8472 66.0137 69.786 65.9927 69.7278C65.9723 69.6702 65.9405 69.6174 65.8991 69.5718C65.8577 69.5268 65.8079 69.4896 65.7527 69.4638C65.6975 69.4374 65.6369 69.4224 65.5757 69.4194C65.5145 69.4164 65.4533 69.4254 65.3957 69.4464C65.3381 69.4668 65.2853 69.4992 65.2397 69.54C63.1007 71.4312 61.2551 73.98 61.8197 76.6686C61.8245 76.7322 61.8425 76.794 61.8713 76.851C61.9007 76.9074 61.9409 76.9572 61.9901 76.998C62.0393 77.0388 62.0957 77.0694 62.1569 77.0874C62.2181 77.106 62.2823 77.112 62.3453 77.1048C62.4089 77.0982 62.4701 77.0784 62.5259 77.0478C62.5811 77.0166 62.6303 76.9746 62.6693 76.9242C62.7083 76.8744 62.7371 76.8168 62.7539 76.755C62.7701 76.6932 62.7743 76.629 62.7653 76.566H62.7665Z" fill="#190D39"></path><path fill-rule="evenodd" clip-rule="evenodd" d="M61.2862 72.7548C61.8166 70.7454 62.9812 68.9604 64.6072 67.665C64.654 67.6254 64.6918 67.5774 64.72 67.5228C64.7476 67.4682 64.7644 67.4088 64.7698 67.3482C64.7746 67.287 64.7674 67.2258 64.7488 67.1676C64.7296 67.1094 64.6996 67.0554 64.66 67.0086C64.6204 66.9624 64.5718 66.924 64.5178 66.8958C64.4632 66.8682 64.4038 66.8514 64.3426 66.8466C64.282 66.8418 64.2202 66.8484 64.1626 66.8676C64.1044 66.8862 64.0504 66.9162 64.0036 66.9558C62.1154 68.8686 60.9814 70.1286 60.3856 72.45C60.364 72.5094 60.355 72.573 60.358 72.636C60.361 72.699 60.3772 72.7608 60.4042 72.8178C60.4318 72.8748 60.4702 72.9258 60.5176 72.9672C60.565 73.0092 60.6202 73.0416 60.6802 73.0614C60.7402 73.0818 60.8032 73.0902 60.8662 73.0854C60.9292 73.0812 60.991 73.0638 61.0474 73.0356C61.1038 73.0068 61.1536 72.9672 61.195 72.9192C61.2358 72.8712 61.267 72.8154 61.2862 72.7548Z" fill="#190D39"></path><path fill-rule="evenodd" clip-rule="evenodd" d="M60.2239 69.6006C62.9305 66.2016 64.8727 63.8106 68.9617 62.4306C71.0845 61.8132 73.2433 61.326 75.4255 60.9714C75.4855 60.9582 75.5425 60.9336 75.5929 60.8988C75.6433 60.864 75.6865 60.8196 75.7195 60.768C75.7531 60.7164 75.7753 60.6588 75.7867 60.5982C75.7975 60.5382 75.7969 60.4764 75.7837 60.4164C75.7705 60.3564 75.7459 60.2994 75.7111 60.249C75.6763 60.1986 75.6319 60.1554 75.5803 60.1218C75.5287 60.0888 75.4711 60.066 75.4111 60.0552C75.3505 60.0438 75.2887 60.045 75.2287 60.0582C71.5651 60.7716 67.8205 61.4232 64.7683 63.5112C63.1405 64.6764 61.6873 66.0678 60.4531 67.6446C60.1105 68.091 59.8087 68.5674 59.4715 69.0246C59.3947 69.1242 59.3608 69.2502 59.377 69.375C59.3933 69.4998 59.4584 69.6132 59.5582 69.69C59.658 69.7668 59.7842 69.801 59.909 69.7848C60.0337 69.7686 60.1471 69.7032 60.2239 69.6036V69.6006Z" fill="#190D39"></path><path fill-rule="evenodd" clip-rule="evenodd" d="M83.5656 65.6574C85.746 64.7076 84.4308 61.746 83.6538 59.3206C83.3412 58.294 82.9098 57.3886 81.87 57.1246C80.4864 56.8944 79.0656 57.0499 77.7648 57.574C76.8588 57.9766 76.392 58.6222 76.5558 59.2996C76.5702 59.3596 77.4678 64.1784 78.1092 65.133C78.4098 65.586 78.8712 65.9076 79.4004 66.033C79.5906 67.3116 80.0598 68.5332 80.7744 69.6114C80.811 69.6618 80.8572 69.705 80.91 69.7374C80.9634 69.7704 81.0228 69.792 81.0846 69.801C81.1464 69.8106 81.2094 69.8076 81.2694 69.792C81.33 69.7764 81.387 69.7494 81.4368 69.7116C81.4866 69.6738 81.528 69.6264 81.5592 69.5724C81.5904 69.5184 81.6108 69.4584 81.618 69.3966C81.6258 69.3342 81.621 69.2718 81.6042 69.2112C81.5868 69.1512 81.558 69.0954 81.519 69.0468C80.7828 67.6488 80.4918 66.9084 80.43 66.1518C81.1662 66.1212 81.8994 66.039 82.6242 65.9064C82.9062 66.786 83.2956 67.6278 83.784 68.412C83.8212 68.4606 83.8674 68.502 83.9202 68.5326C83.973 68.5638 84.0318 68.5836 84.0924 68.592C84.1536 68.6004 84.2154 68.5968 84.2742 68.5812C84.3336 68.5656 84.3894 68.5386 84.438 68.5014C84.4872 68.4642 84.528 68.418 84.5592 68.3652C84.5904 68.3124 84.6102 68.2536 84.6186 68.193C84.627 68.1324 84.6234 68.0706 84.6078 68.0112C84.5922 67.9518 84.5652 67.896 84.528 67.8474C84.1314 67.1526 83.8092 66.4188 83.5656 65.6574ZM80.0034 62.8728C79.9848 62.9418 79.9398 63.0006 79.8774 63.0366C79.8156 63.072 79.7424 63.0816 79.6728 63.063C79.6038 63.0444 79.545 62.9994 79.5096 62.9376C79.4736 62.8758 79.464 62.802 79.4826 62.733C79.7646 61.3254 80.1972 59.952 80.7738 58.6372C80.7864 58.6027 80.8056 58.5709 80.8302 58.5439C80.8554 58.5169 80.8854 58.4952 80.919 58.4802C80.9526 58.4651 80.9886 58.4569 81.0258 58.4562C81.0624 58.4554 81.099 58.462 81.1332 58.4757C81.1674 58.4894 81.198 58.5098 81.2244 58.5358C81.2502 58.5617 81.2712 58.5926 81.285 58.6267C81.2988 58.6608 81.3054 58.6972 81.3048 58.734C81.3042 58.7708 81.2964 58.807 81.2814 58.8406C80.7684 60.1554 80.3412 61.5024 80.0034 62.8728ZM82.4556 60.2502C81.9426 61.5648 81.5154 62.9112 81.1776 64.2816C81.1686 64.3158 81.1524 64.3476 81.1314 64.3758C81.1098 64.404 81.0828 64.4274 81.0522 64.4454C81.0216 64.4628 80.9874 64.4742 80.9526 64.479C80.9172 64.4838 80.8818 64.4814 80.8476 64.4724C80.8134 64.4634 80.7816 64.4472 80.7534 64.4256C80.7252 64.404 80.7018 64.3776 80.6838 64.347C80.6664 64.3164 80.6544 64.2822 80.6502 64.2474C80.6454 64.212 80.6478 64.1766 80.6568 64.1424C80.9388 62.7348 81.3714 61.3614 81.948 60.0468C81.9606 60.012 81.9798 59.9803 82.0044 59.9533C82.0296 59.9263 82.0596 59.9046 82.0932 59.8896C82.1268 59.8745 82.1628 59.8663 82.2 59.8656C82.2366 59.8648 82.2732 59.8714 82.3074 59.8851C82.3416 59.8988 82.3722 59.9192 82.3986 59.9452C82.4244 59.9711 82.4454 60.0018 82.4592 60.036C82.473 60.0702 82.4796 60.1068 82.479 60.1434C82.4784 60.18 82.4706 60.2166 82.4556 60.2502Z" fill="#190D39"></path><path fill-rule="evenodd" clip-rule="evenodd" d="M76.6107 41.8006C75.8001 42.2644 75.1107 42.6802 75.1107 42.6802C75.0303 42.7306 74.9661 42.8033 74.9265 42.8896C74.8863 42.9757 74.8725 43.0717 74.8857 43.1657C74.8995 43.2596 74.9403 43.3477 75.0027 43.4191C75.0657 43.4904 75.1479 43.542 75.2391 43.5676L76.5147 43.945C76.4709 45.2446 76.4589 46.3882 76.4589 46.3882C76.4577 46.4885 76.4883 46.5868 76.5459 46.669C76.6035 46.7511 76.6857 46.8131 76.7805 46.8463C76.8753 46.8794 76.9779 46.882 77.0745 46.8536C77.1705 46.8252 77.2557 46.7674 77.3175 46.6882C77.3175 46.6882 78.3291 45.268 78.8943 44.479C80.2713 44.7094 81.7035 44.863 81.7035 44.863C81.8007 44.8775 81.9003 44.8612 81.9879 44.8163C82.0761 44.7714 82.1475 44.7002 82.1925 44.6126C82.2375 44.525 82.2543 44.4256 82.2399 44.3281C82.2255 44.2306 82.1811 44.1401 82.1127 44.0692C82.1127 44.0692 81.2535 43.2016 80.2869 42.2092C80.8005 41.2948 81.3021 40.3726 81.3021 40.3726C81.3387 40.3028 81.3531 40.2235 81.3441 40.1453C81.3345 40.067 81.3021 39.9934 81.2499 39.9342C81.1977 39.875 81.1293 39.8329 81.0531 39.8134C80.9763 39.794 80.8959 39.7982 80.8221 39.8254C79.3707 40.3816 79.2201 40.4854 78.7917 40.6522C78.1017 39.9208 77.5917 39.3526 77.5917 39.3526C77.5257 39.2844 77.4411 39.2368 77.3487 39.2156C77.2563 39.1945 77.1591 39.2005 77.0703 39.2332C76.9809 39.2658 76.9029 39.3236 76.8459 39.3995C76.7889 39.4754 76.7553 39.5662 76.7487 39.661C76.7487 39.661 76.6551 41.0236 76.6107 41.8006Z" fill="#190D39"></path><path fill-rule="evenodd" clip-rule="evenodd" d="M28.0051 52.6798C26.8321 52.7584 25.8025 52.8484 25.8025 52.8484C25.7069 52.8597 25.6168 52.8987 25.5431 52.9605C25.4695 53.0224 25.4156 53.1045 25.388 53.1966C25.3603 53.2887 25.3603 53.387 25.3877 53.4791C25.4153 53.5713 25.4691 53.6534 25.5427 53.7154L26.8669 54.8512C26.1469 56.2516 25.5349 57.511 25.5349 57.511C25.4891 57.6006 25.4731 57.7024 25.4891 57.8016C25.505 57.9009 25.5521 57.9926 25.6237 58.0634C25.6951 58.1341 25.7872 58.1802 25.8867 58.1952C25.9861 58.2101 26.0878 58.193 26.1769 58.1464L29.1601 56.5666C30.6109 57.5506 32.1835 58.4974 32.1835 58.4974C32.2658 58.5505 32.3627 58.5765 32.4605 58.5719C32.5583 58.5672 32.6523 58.5321 32.7292 58.4714C32.8061 58.4107 32.8621 58.3275 32.8894 58.2333C32.9166 58.1393 32.9138 58.039 32.8813 57.9466C32.8813 57.9466 32.3413 56.5342 31.7455 54.9364C32.7961 54.208 33.8587 53.4544 33.8587 53.4544C33.9235 53.4085 33.9727 53.3437 33.9995 53.2689C34.0264 53.1941 34.0296 53.1128 34.0087 53.0361C33.9878 52.9595 33.9439 52.8911 33.8828 52.8402C33.8217 52.7893 33.7465 52.7585 33.6673 52.7518C33.6073 52.7464 32.1115 52.618 30.8797 52.5778C30.4507 51.3916 30.1381 50.4742 30.1381 50.4742C30.1055 50.3858 30.0482 50.3087 29.973 50.252C29.8978 50.1953 29.8079 50.1615 29.7139 50.1546C29.62 50.1477 29.5261 50.168 29.4434 50.2131C29.3607 50.2582 29.2928 50.3261 29.2477 50.4088C29.2477 50.4088 28.4515 51.8518 28.0051 52.6798Z" fill="#190D39"></path><path fill-rule="evenodd" clip-rule="evenodd" d="M64.1079 91.9127C62.4879 91.9727 61.2279 91.9997 61.2279 91.9997C61.1343 92.0039 61.0443 92.0345 60.9669 92.0873C60.8901 92.1401 60.8295 92.2139 60.7917 92.2991C60.7545 92.3849 60.7419 92.4791 60.7551 92.5715C60.7683 92.6645 60.8079 92.7509 60.8679 92.8223C60.8679 92.8223 62.1489 94.3163 62.8923 95.1683C62.3859 96.6281 61.9707 97.9283 61.9707 97.9283C61.9425 98.0237 61.9437 98.1251 61.9743 98.2193C62.0049 98.3135 62.0631 98.3969 62.1411 98.4575C62.2197 98.5181 62.3145 98.5541 62.4135 98.5595C62.5125 98.5655 62.6109 98.5415 62.6961 98.4905L64.7583 97.2869C66.0267 98.6933 67.1847 99.9389 67.1847 99.9389C67.2507 100.012 67.3377 100.062 67.4337 100.083C67.5297 100.104 67.6293 100.095 67.7199 100.057C67.8105 100.019 67.8873 99.9545 67.9395 99.8717C67.9917 99.7889 68.0169 99.6917 68.0121 99.5933C68.0121 99.5933 67.7901 96.7061 67.6875 95.3183C69.5595 93.9581 71.4771 92.4293 71.4771 92.4293C71.5575 92.3699 71.6163 92.2865 71.6451 92.1905C71.6745 92.0951 71.6721 91.9925 71.6385 91.8983C71.6049 91.8041 71.5419 91.7237 71.4585 91.6679C71.3757 91.6121 71.2767 91.5851 71.1771 91.5893C71.1771 91.5893 69.2739 91.6901 67.1289 91.7879C66.8103 90.2459 66.4653 88.6571 66.4653 88.6571C66.4473 88.5797 66.4059 88.5101 66.3471 88.4567C66.2883 88.4033 66.2145 88.3697 66.1353 88.3595C66.0567 88.3493 65.9769 88.3637 65.9061 88.4009C65.8359 88.4375 65.7783 88.4951 65.7417 88.5653C64.8855 90.2165 64.1355 91.8521 64.1079 91.9127Z" fill="#190D39"></path><path d="M73.2821 29.1783C73.2059 29.1783 73.1309 29.1589 73.0637 29.1219C72.9971 29.0848 72.9407 29.0314 72.9005 28.9667C72.8603 28.902 72.8369 28.828 72.8327 28.7517C72.8285 28.6755 72.8441 28.5995 72.8777 28.5309L78.5027 17.0325C78.5285 16.9794 78.5651 16.9319 78.6089 16.8928C78.6533 16.8537 78.7049 16.8236 78.7607 16.8044C78.8171 16.7853 78.8759 16.7772 78.9353 16.7809C78.9941 16.7846 79.0517 16.7998 79.1051 16.8258C79.1579 16.8517 79.2053 16.8879 79.2443 16.9322C79.2839 16.9765 79.3139 17.0281 79.3331 17.084C79.3523 17.1399 79.3601 17.1991 79.3565 17.2581C79.3529 17.3171 79.3373 17.3748 79.3115 17.4279L73.6865 28.9263C73.6493 29.002 73.5917 29.0657 73.5203 29.1103C73.4489 29.1549 73.3661 29.1784 73.2821 29.1783Z" fill="#190D39"></path><path d="M68.9804 28.5997C68.8664 28.5994 68.7566 28.556 68.6738 28.478C68.5904 28.4 68.54 28.2934 68.5322 28.1797L67.8722 18.4183C67.868 18.3592 67.8758 18.2999 67.895 18.2438C67.9142 18.1876 67.9436 18.1358 67.9826 18.0913C68.0216 18.0467 68.069 18.0103 68.1224 17.984C68.1752 17.9577 68.2334 17.9422 68.2922 17.9383C68.3516 17.9343 68.4104 17.942 68.4668 17.961C68.5226 17.98 68.5748 18.0098 68.6192 18.0488C68.6636 18.0878 68.7002 18.1352 68.7266 18.1883C68.753 18.2414 68.768 18.2992 68.7722 18.3583L69.4322 28.1197C69.4364 28.1813 69.4274 28.2432 69.4064 28.3014C69.386 28.3596 69.353 28.4129 69.311 28.4579C69.2684 28.5029 69.2174 28.5388 69.1604 28.5631C69.1034 28.5875 69.0422 28.6 68.9804 28.5997Z" fill="#190D39"></path><path d="M90.3165 100.14C90.2427 100.14 90.1695 100.122 90.1041 100.087C90.0387 100.052 89.9836 100.001 89.9422 99.9401L81.7557 87.7103C81.7221 87.6611 81.6987 87.6059 81.6861 87.5477C81.6741 87.4895 81.6735 87.4295 81.6849 87.3707C81.6963 87.3125 81.7186 87.2567 81.7516 87.2075C81.7846 87.1577 81.8271 87.1151 81.8763 87.0821C81.9255 87.0491 81.9813 87.0257 82.0395 87.0143C82.0977 87.0029 82.1583 87.0029 82.2165 87.0149C82.2747 87.0269 82.3299 87.0497 82.3791 87.0833C82.4283 87.1169 82.4709 87.1595 82.5033 87.2093L90.6897 99.4367C90.7353 99.5045 90.7623 99.5837 90.7665 99.6653C90.7707 99.7469 90.7527 99.8285 90.7143 99.9005C90.6765 99.9725 90.6189 100.033 90.5487 100.076C90.4785 100.118 90.3981 100.14 90.3165 100.14Z" fill="#190D39"></path><path d="M94.9264 92.4174C94.7242 92.4174 94.8802 92.472 86.7064 87.3228C86.6566 87.291 86.6128 87.2502 86.5792 87.2016C86.545 87.1536 86.5204 87.099 86.5072 87.0414C86.494 86.9838 86.4928 86.9238 86.5024 86.8656C86.5126 86.8074 86.5342 86.7516 86.5654 86.7018C86.5972 86.6514 86.638 86.6082 86.6866 86.574C86.7346 86.5398 86.7892 86.5158 86.8468 86.5026C86.9044 86.4894 86.9644 86.4876 87.0226 86.4978C87.0808 86.508 87.1366 86.529 87.1864 86.5608L95.1664 91.5864C95.2486 91.6386 95.3116 91.716 95.3464 91.8072C95.3806 91.8984 95.3848 91.998 95.3578 92.0916C95.3308 92.1852 95.2744 92.2674 95.1964 92.3262C95.1184 92.385 95.0242 92.4168 94.9264 92.4174Z" fill="#190D39"></path></svg>