<svg xmlns="http://www.w3.org/2000/svg" width="121" height="120" viewBox="0 0 121 120" fill="none"><path d="M70.6507 96.8045C69.3241 95.8265 68.4709 95.5235 67.0117 94.9769C65.2663 94.3229 63.4357 94.5773 61.8565 94.8671C59.5658 95.2877 50.8028 96.6983 52.3826 98.3111C53.4494 99.3983 55.538 100.686 57.6008 100.94C59.8742 101.223 62.2897 100.403 64.3123 99.8951C65.7781 99.5249 66.5617 99.4229 69.2701 98.7389C69.9577 98.5643 71.0899 98.4161 71.2243 97.7699C71.3221 97.3001 70.8169 96.9269 70.6507 96.8045ZM69.4411 98.0819C68.7169 98.2457 68.1655 98.4209 65.8729 98.9195C62.3635 99.6809 60.0926 100.644 57.674 100.345C55.754 100.107 53.807 98.9069 52.8062 97.9331C52.9424 97.5803 54.935 96.8855 57.2492 96.3851C58.952 96.0173 60.6637 95.6957 61.9645 95.4569C63.6169 95.1539 65.2333 94.9517 66.8011 95.5385C68.2459 96.0797 69.0313 96.3557 70.2943 97.2875C70.6207 97.5281 70.6369 97.6463 70.6369 97.6463C70.5727 97.8239 69.7507 98.0105 69.4411 98.0819Z" fill="#190D39"></path><path d="M80.181 87.5111C79.656 87.1145 78.8094 86.6549 77.7378 86.0729C75.7104 84.9707 72.552 83.1965 69.5844 81.8927C68.4576 81.3977 66.3606 81.2099 64.5972 81.4457C61.9548 81.7991 42.3089 85.3643 32.8451 87.5363C21.8825 90.0527 17.6387 91.4501 16.0091 92.1803C15.5657 92.3789 15.3125 92.6255 15.2579 92.9135C15.1859 93.2897 15.4595 93.5171 15.6383 93.7049C17.0999 95.2385 18.8159 96.2681 20.8685 97.4033C23.7935 99.0215 26.3543 100.573 29.5277 100.573C31.4651 100.573 34.4831 99.7115 38.8271 98.5445C48.6449 95.9081 51.2717 95.2913 67.7034 91.9475C73.9896 90.6683 78.9546 89.6579 79.8732 89.3261C80.9994 88.9187 81.171 88.2611 80.1804 87.5123L80.181 87.5111ZM16.0739 93.2909C15.8759 93.0833 15.6341 93.0053 16.2551 92.7275C17.5685 92.1395 21.4889 90.7583 32.9795 88.1207C42.4301 85.9517 62.0406 82.3925 64.677 82.0403C66.0678 81.8543 68.181 81.9311 69.3432 82.4417C69.8472 82.6631 70.5066 82.9667 71.3232 83.3645C53.5595 86.2259 35.6045 90.1007 17.9345 94.8953C16.9055 94.1627 16.4345 93.6689 16.0739 93.2909ZM18.5885 95.3429C36.3509 90.5423 54.3971 86.6645 72.2418 83.8205C74.115 84.7631 75.5226 85.5449 76.6776 86.1779C58.6409 88.8275 40.6457 92.7935 23.1743 97.9841C21.7361 97.2089 19.8947 96.2027 18.5885 95.3429ZM79.6698 88.7609C77.9124 89.3957 59.0705 92.9507 49.8599 95.1065C40.8317 97.2197 34.1321 99.3611 30.8279 99.8753C29.1881 100.13 27.3953 99.8345 26.3447 99.4283C25.2785 99.0155 24.7739 98.8151 23.9393 98.3879C41.4503 93.2171 59.4791 89.2661 77.5452 86.6513C78.5484 87.1961 79.3452 87.6317 79.8186 87.9899C80.3598 88.3991 80.3862 88.5023 79.6692 88.7609H79.6698Z" fill="#190D39"></path><path d="M95.5594 92.3969C90.3658 88.5887 78.466 82.0877 72.4246 79.4327C71.3158 78.9455 69.5536 78.6437 67.7074 78.5783C69.8524 77.6285 70.8868 75.9761 71.0818 74.1953C71.4766 70.5845 71.7406 65.9231 71.8822 60.9635C70.5796 61.3151 69.2086 61.5281 67.867 61.6211C67.7878 64.8761 67.6342 67.8881 67.3954 70.3319C67.2598 71.7161 66.3556 72.9443 65.0338 73.5383C55.5844 77.7845 29.5162 84.2345 13.5502 85.0793C11.4508 85.1873 9.57342 83.7971 9.19122 81.8375C6.97782 70.4771 7.09242 55.647 8.93502 46.854C9.16362 45.7644 9.88302 44.8044 10.9096 44.2206C19.9546 39.078 52.0894 32.1888 62.8414 32.2008C64.9306 32.2032 66.6988 33.6858 66.9778 35.652C68.503 35.7078 70.0684 35.9832 71.5654 36.438C71.488 35.2968 71.4004 34.248 71.3026 33.3144C71.0242 30.6396 68.8018 28.5798 66.1324 28.524C54.2056 28.2774 18.007 35.7228 7.66722 41.6724C6.35383 42.4278 5.41963 43.698 5.10463 45.1572C2.83423 55.6674 2.45743 73.1843 4.69963 86.5649C5.13283 89.1509 7.42722 91.1057 10.1446 91.0097C10.4896 90.9971 10.8388 90.9815 11.1916 90.9641C10.4284 91.2395 9.76662 91.5011 9.22122 91.7453C8.62662 92.0111 8.01102 92.4383 8.11302 93.0797C7.68462 94.4843 7.96002 97.0769 8.40882 97.5419C11.0668 100.293 13.8208 102.681 18.6634 105.361C23.851 108.23 28.6 110.248 31.6714 111.436C33.4168 112.111 36.7522 112.462 39.7396 111.998C44.1094 111.319 51.5584 109.559 61.8694 107.131C70.198 105.169 86.6128 101.442 94.6606 98.5355C95.7124 98.1557 96.079 96.1457 96.1666 95.5385C96.3226 94.4507 96.3994 93.0149 95.5576 92.3981L95.5594 92.3969ZM95.5156 93.3257C95.4892 93.5069 95.1976 93.7955 94.4578 94.0631C82.9888 98.2061 53.5948 104.615 39.6484 106.783C37.048 107.188 33.712 106.96 31.888 106.255C25.4848 103.778 13.6042 98.1161 8.83902 93.2153C8.72922 93.1025 8.68242 92.9999 8.69982 92.9099C9.13842 90.6191 59.0824 79.1627 66.9676 79.1627C68.9896 79.1627 70.9918 79.4591 72.1828 79.9823C78.1312 82.5965 90.0496 89.1023 95.2042 92.8811C95.3308 92.9735 95.5402 93.1553 95.5156 93.3257Z" fill="#190D39"></path><path d="M44.017 49.6924C43.3186 48.2698 41.4748 48.0346 40.1386 48.6256C38.4256 49.3834 37.555 51.3454 37.0306 53.0236C35.875 56.7196 35.8 62.3141 38.9182 64.6427C40.7098 65.9807 43.3222 65.7341 44.9458 64.2143C45.127 64.0445 44.9386 63.6701 44.689 63.7739C43.3636 64.3241 41.7568 65.4935 39.7594 64.3121C36.7816 62.5505 36.709 57.6946 37.4506 54.3028C37.8046 52.6852 38.3566 50.8882 39.616 49.7356C40.7764 48.6742 42.868 48.3964 43.9282 49.7614C43.9696 49.8148 44.0428 49.747 44.0164 49.693L44.017 49.6924Z" fill="#190D39"></path><path d="M35.9329 46.93C33.8581 47.9392 32.7205 50.0572 31.9639 52.1428C31.0783 54.583 30.7243 57.2146 30.8821 59.8036C31.1587 64.3505 33.1189 69.8381 37.3903 71.3417C39.4495 72.0665 42.1285 71.8229 43.4959 69.9503C43.6297 69.7673 43.3507 69.5867 43.1977 69.7205C41.7493 70.9859 39.7465 71.3621 37.9129 70.8323C35.9233 70.2581 34.4371 68.6507 33.4609 66.8861C31.2013 62.8013 30.9325 57.6838 32.1805 53.245C32.8357 50.9146 33.9535 48.4822 36.0217 47.083C36.1165 47.0188 36.0355 46.8802 35.9329 46.93Z" fill="#190D39"></path><path d="M48.2392 49.5965C48.4762 49.5947 48.7102 49.5941 48.9418 49.5929C46.738 44.5919 42.1612 43.2479 38.98 44.9855C38.9128 45.0227 38.9584 45.1295 39.0322 45.1091C43.4632 43.8635 46.609 46.1027 48.2392 49.5965Z" fill="#190D39"></path><path d="M48.549 61.1243C48.4716 61.3247 48.3894 61.5233 48.3024 61.7189C47.8962 62.6327 47.3724 63.4835 46.893 64.3589C46.7688 64.5857 47.0616 64.8155 47.2506 64.6349C48.2448 63.6869 48.9666 62.3309 49.446 60.8201C49.146 60.9221 48.8466 61.0235 48.549 61.1243Z" fill="#190D39"></path><path d="M27.1456 50.7712C29.9326 42.148 37.339 38.5456 43.3648 40.6C45.214 41.2306 46.7824 42.4072 48.094 43.8376C48.2458 44.0032 48.5248 43.7884 48.4054 43.5976C46.4896 40.5388 42.4606 39.1366 38.9824 39.4498C33.4192 39.9508 28.4524 44.2732 27.031 50.74C27.0148 50.8144 27.1222 50.8438 27.1456 50.7712Z" fill="#190D39"></path><path d="M28.0754 69.2016C29.1854 72.7446 32.2316 75.3864 35.762 76.3848C39.4952 77.4408 43.481 76.4556 46.553 74.1588C48.0764 73.02 50.1554 70.8588 50.675 69.189C50.7482 68.9532 50.402 68.7234 50.2376 68.9346C49.6676 69.6666 49.2314 70.4934 48.6422 71.2164C46.8824 73.3776 44.5586 74.9388 42.0218 75.6744C36.1844 77.3664 30.194 74.1042 28.2542 69.1518C28.2116 69.0432 28.0388 69.0852 28.0754 69.2016Z" fill="#190D39"></path><path d="M63.0458 56.4149C62.2724 56.7551 61.4642 57.0311 60.647 57.1277C59.8998 57.2171 59.5368 56.8277 58.6746 56.7659C58.4382 56.7491 57.756 56.9111 56.97 57.1289C55.3218 57.0137 53.7876 53.1431 54.9024 50.8709C54.9798 50.7137 55.0902 50.5571 55.227 50.4245C57.1992 49.9853 57.2592 49.9505 57.8412 49.1465C58.9344 47.6363 60.4032 46.4513 62.0672 45.5819C62.0768 45.3527 62.0876 45.1229 62.1008 44.8931C60.2244 45.8207 58.557 47.1305 57.3192 48.8447C56.9844 49.3085 56.8782 49.3949 56.4336 49.5065C56.2872 49.3691 55.812 49.2065 54.099 49.2893C52.9734 49.3433 43.6638 49.1291 40.3914 49.6751C40.2282 49.7021 40.1172 49.8569 40.1448 50.0201C40.1718 50.1833 40.3266 50.2943 40.4898 50.2667C43.7082 49.7303 52.9548 49.9445 54.1278 49.8887C54.2604 49.8821 54.5874 49.8791 54.9378 49.8827C54.705 50.0711 54.5052 50.3183 54.3636 50.6069C53.1498 53.0795 54.6486 56.8709 56.2392 57.5651C56.4204 57.6443 56.6856 57.7145 56.9634 57.7295C53.8446 59.1293 42.9426 62.715 41.2692 63.1458C40.9296 63.2334 40.9926 63.7362 41.3436 63.7362C41.8212 63.7362 56.43 58.9289 58.0026 57.8657C58.194 57.7361 58.1166 57.5441 58.0998 57.4535C58.125 57.4469 58.1496 57.4409 58.1754 57.4343C59.1684 57.1805 59.586 57.8573 60.7178 57.7229C61.5578 57.6227 62.3936 57.3455 63.1868 57.0041C63.1382 56.8085 63.0914 56.6117 63.0452 56.4143L63.0458 56.4149Z" fill="#190D39"></path><path d="M75.4961 47.0956C75.5357 48.028 75.6005 48.7216 75.7277 49.606C76.8131 49.3462 76.9025 48.4444 76.3805 47.779C76.1735 47.5156 75.8657 47.2894 75.4961 47.0956Z" fill="#190D39"></path><path d="M58.0248 55.1993C60.6888 54.5981 63.0012 52.6601 64.0602 50.1431C64.1106 50.0225 64.233 49.9493 64.3632 49.9607C66.7152 50.1683 69.1308 49.8533 71.3502 49.0499C72.003 48.8141 71.9196 48.5351 71.2944 48.2345C68.0646 46.6823 64.251 46.4081 60.8322 47.4809C60.6738 47.5307 60.5058 47.4425 60.456 47.2847C60.4062 47.1269 60.4944 46.9583 60.6522 46.9085C64.215 45.7907 68.1882 46.0769 71.5536 47.6939C72.1872 47.9981 72.4884 48.4313 72.3804 48.8831C72.2808 49.3019 71.8866 49.4939 71.5542 49.6139C69.321 50.4221 66.8976 50.7533 64.5258 50.5757C63.357 53.1707 60.936 55.1567 58.1574 55.7843C57.7662 55.8719 57.642 55.2863 58.0248 55.1993Z" fill="#190D39"></path><path d="M98.4314 8.44488C91.2974 6.65388 83.6912 8.57508 77.0132 13.8539C67.4096 21.4457 61.841 34.3529 61.7246 46.9295C61.9244 46.8827 62.1248 46.8413 62.3258 46.8029C62.3732 43.2365 62.8682 39.6629 63.755 36.2033C67.553 35.4191 72.5486 36.5021 76.0604 38.8673C74.3672 45.7067 75.197 52.3331 77.852 56.8463C75.569 60.3695 69.599 61.6355 64.8764 61.3277C63.7964 58.5863 63.0758 55.7249 62.6828 52.8113C62.5136 52.9943 62.3366 53.1707 62.153 53.3393C62.624 56.5649 63.4862 59.7017 64.766 62.6477C69.3164 73.1159 77.7524 78.1757 86.3276 78.1757C99.377 78.1745 112.2 66.4733 116.415 49.6775C120.778 32.2949 114.273 12.4205 98.4314 8.44488ZM107.667 14.1695C108.27 19.8143 105.537 24.2585 100.504 25.8395C98.3594 23.1749 95.4272 21.6713 92.105 21.7805C91.4264 17.2079 88.637 12.7805 84.728 10.0445C93.1526 6.73008 101.583 8.55408 107.667 14.1695H107.667ZM84.8522 61.7621C77.6312 59.9495 73.958 49.7009 76.6646 38.9165C78.6938 30.8309 84.821 22.3691 92.4242 22.3691C96.35 22.3691 100.368 24.8453 102.468 30.6461C105.712 39.6017 102.592 52.0289 95.504 58.3913C92.111 61.4369 88.3286 62.6339 84.8522 61.7621ZM102.704 71.1701C102.259 66.8027 99.8744 62.2961 96.0812 58.6733C99.7904 55.2611 102.246 50.4455 103.464 45.5345C107.971 47.1047 112.453 47.1287 116.709 45.0953C115.099 55.9703 109.783 65.3105 102.704 71.1701Z" fill="#190D39"></path></svg>