<svg xmlns="http://www.w3.org/2000/svg" width="1180" height="1180" viewBox="0 0 1180 1180" fill="none"><path d="M487.122 560.932C485.636 556.56 474.007 528.016 467.759 515.077C465.222 520.145 453.852 532.034 447.646 533.568C448.236 536.323 450.135 544.583 451.233 550.265C463.394 553.116 475.378 556.678 487.122 560.932Z" fill="#190D39"></path><path d="M579.014 892.081C557.303 892.762 535.939 897.724 516.15 906.683C500.019 913.173 404.846 953.883 390.244 957.134C387.624 957.724 386.663 954.184 388.757 952.762C410.965 939.192 537.136 889.243 559.267 885.656C557.869 882.334 544.971 827.948 556.948 837.565C561.32 841.016 563.899 878.57 564.689 885.048C587.068 882.594 689.144 887.709 717.694 888.676C711.971 863.714 705.239 834.898 702.395 827.47C692.076 826.243 559.527 824.585 541.998 824.974C510.085 825.718 409.053 868.693 380.769 885.827C371.677 891.337 364.42 889.107 362.325 886.352C301.414 805.941 189.933 557.61 198.984 476.91C199.332 473.629 204.494 474.243 204.624 477.429C208.43 590.266 311.414 784.937 368.78 881.579C376.827 874.404 416.216 857.389 427.449 852.669C407.513 846.326 383.73 820.809 378.922 795.58C317.721 775.243 301.892 658.11 318.506 594.874C324.801 570.779 360.301 552.028 382.68 553.12C382.68 549.409 381.854 531.744 382.68 517.012C373.547 517.602 343.339 515.177 345.392 484.001C341.612 483.937 337.902 482.969 334.573 481.178C331.243 479.387 328.391 476.825 326.254 473.706C324.117 470.587 322.758 467.002 322.289 463.25C321.821 459.499 322.257 455.69 323.562 452.141C305.331 452.141 211.344 457.209 197.22 463.906C183.095 470.602 154.15 503.595 150.486 520.162C146.822 536.73 156.651 588.054 224.826 750.504C293 912.955 323.91 959.276 352.39 962.078C372.45 964.043 489.393 964.568 528.741 962.078C527.519 957.093 517.153 934.348 513.831 921.899C510.51 909.45 563.539 895.414 567.386 906.601C574.13 924.53 579.564 942.926 583.646 961.642C591.316 961.642 633.53 960.851 655.915 960.415C678.3 959.978 718.862 937.245 727.128 927.717C726.208 924.655 723.323 911.981 719.824 896.547C677.32 895.279 619.276 892.11 579.014 892.081Z" fill="#190D39"></path><path d="M713.27 578.685C706.06 580.084 698.769 581.018 691.44 581.481C688.383 581.481 598.497 562.011 594.68 562.902C590.862 563.793 580.602 608.102 574.266 630.092C596.432 611.802 596.998 591.624 619.106 603.866C628.504 609.111 635.938 630.794 634.275 640.104C632.611 649.414 616.049 678.708 592.615 700.473C598.603 696.449 637.638 667.557 665.185 650.913C665.704 650.323 682.295 598.763 686.56 590.408C686.79 590.043 687.138 589.767 687.546 589.627C687.954 589.487 688.398 589.492 688.803 589.641C689.208 589.79 689.55 590.073 689.771 590.444C689.992 590.814 690.079 591.249 690.018 591.677C684.507 610.12 678.253 628.351 672.53 646.718L693.292 637.201C699.411 620.091 705.794 604.503 712.131 587.493C713.27 584.437 716.81 584.874 715.718 587.93C709.989 603.931 704.614 619.625 698.714 635.584C711.095 631.762 724.48 632.939 736.002 638.865C737.666 635.496 776.836 547.798 776.004 547.279C775.172 546.76 715.187 577.894 713.27 578.685Z" fill="#190D39"></path><path d="M1146.86 1098.65C1001.67 1098.65 115.046 1101.6 33.5257 1102.55C28.8942 1102.55 27.844 1109.88 32.6525 1109.88C177.793 1110.67 1064.33 1107.74 1145.82 1107.27C1151.27 1107.22 1152.41 1098.65 1146.86 1098.65Z" fill="#190D39"></path><path d="M339.008 439.138C320.517 447.138 329.343 482.857 354.483 477.783C348.536 498.433 365.847 516.516 390.945 505.589C389.588 515.684 387.228 548.476 389.175 558.046C384.803 559.226 380.827 558.53 380.957 562.07C380.957 567.144 392.232 563.993 394.072 562.07C395.913 560.147 395.382 543.886 395.512 540.24C396.385 515.495 398.969 501.506 401.766 477.423C402.639 470.077 398.002 473.051 394.509 464.307C390.379 453.899 398.881 444.153 408.716 450.536C411.294 452.194 426.64 442.973 428.959 428.37C445.697 438.294 462.925 447.84 482.944 448.088C479.758 463.605 459.934 529.703 434.375 524.983C424.015 523.106 417.767 511.212 413.348 502.863C413.069 502.489 412.68 502.212 412.235 502.071C411.79 501.93 411.312 501.932 410.869 502.076C410.425 502.221 410.038 502.501 409.762 502.877C409.486 503.253 409.335 503.707 409.33 504.173C411.165 516.675 423.142 531.189 435.555 531.673C441.284 564.153 436.954 559.521 447.756 562.276C454.577 563.982 461.262 566.035 468.17 567.345C468.871 567.471 469.593 567.334 470.199 566.96C470.805 566.586 471.251 566.001 471.451 565.318C471.652 564.635 471.593 563.902 471.286 563.26C470.978 562.618 470.445 562.112 469.787 561.84C461.787 559.344 453.615 557.468 445.479 555.409C443.992 547.279 442.529 539.148 441.107 531.018C457.196 526.34 470.66 501.158 476.956 487.299C480.436 488.459 484.149 488.743 487.766 488.126C491.382 487.509 494.791 486.011 497.691 483.764C500.591 481.516 502.893 478.589 504.393 475.241C505.893 471.893 506.544 468.227 506.29 464.567C523.778 469.464 539.383 449.817 528.628 430.252C547.431 431.651 560.104 399.649 541.743 388.02C562.73 374.904 544.239 349.08 529.353 349.9C539.277 322.577 516.238 311.255 493.464 324.235C488.219 287.514 452.282 294.422 444.016 309.851C433.832 288.021 406.203 296.741 402.179 314.836C391.559 299.667 346.571 319.822 358.725 350.16C334.117 341.9 322.529 368.125 337.438 386.622C319.378 388.032 313.88 433.061 339.008 439.138Z" fill="#190D39"></path><path d="M451.234 492.821C455.996 492.874 459.583 488.797 457.919 487.01C456.255 485.222 455.429 488.272 452.939 488.78C450.033 489.083 447.109 488.406 444.632 486.856C440.785 485.086 441.659 492.715 451.234 492.821Z" fill="#190D39"></path><path d="M430.377 485.653C426.3 483.847 423.515 497.76 435.274 502.698C441.174 505.194 445.027 499.683 441.31 498.768C435.144 497.323 431.911 494.397 431.121 490.025C430.814 488.013 431.687 486.231 430.377 485.653Z" fill="#190D39"></path><path d="M444.802 465.895C443.451 461.824 437.722 470.266 440.825 472.272C443.928 474.278 445.634 467.901 444.802 465.895Z" fill="#190D39"></path><path d="M450.618 448.448C447.689 447.487 444.518 447.563 441.637 448.661C438.756 449.76 436.34 451.816 434.794 454.484C433.349 460.69 440.695 452.714 446.99 453.563C454.89 454.484 451.81 448.861 450.618 448.448Z" fill="#190D39"></path><path d="M468.891 458.856C472.39 460.561 473.263 463.835 474.007 464.166C476.408 465.039 476.367 461.281 475.535 459.794C475.1 458.57 474.398 457.458 473.479 456.539C472.561 455.621 471.449 454.919 470.225 454.484C466.691 454.089 467.316 457.977 468.891 458.856Z" fill="#190D39"></path><path d="M464.567 477.694C467.281 478.55 467.977 473.322 467.582 471.665C466.691 466.72 460.856 476.532 464.567 477.694Z" fill="#190D39"></path><path d="M582.556 639.271C588.763 634.026 604.386 617.152 605.03 609.813C605.037 609.606 605.005 609.399 604.933 609.205C604.861 609.011 604.751 608.833 604.61 608.681C604.469 608.529 604.3 608.407 604.112 608.32C603.924 608.234 603.72 608.186 603.513 608.178C603.124 608.161 602.742 608.291 602.445 608.544C595.453 618.006 587.704 626.885 579.276 635.094C576.082 637.502 573.151 640.241 570.532 643.266C569.618 644.28 569.742 650.104 582.556 639.271Z" fill="#190D39"></path><path d="M573.641 700.331C593.442 690.053 612.28 667.674 622.995 647.874C624.904 644.967 626.266 641.736 627.013 638.34C627.013 636.64 624.918 635.106 623.915 636.723C604.681 667.893 601.796 672.217 571.452 697.275C571.158 697.6 570.983 698.017 570.958 698.456C570.933 698.894 571.059 699.328 571.315 699.685C571.571 700.042 571.941 700.301 572.364 700.418C572.787 700.536 573.238 700.505 573.641 700.331Z" fill="#190D39"></path><path d="M613.012 610.243C610.528 611.264 602.693 625.849 601.253 628.297C597.887 633.889 593.991 639.145 589.618 643.991C587.435 646.44 591.719 653.915 605.407 631.454C607.242 628.433 616.245 615.01 615.85 611.512C615.738 610.113 614.08 609.812 613.012 610.243Z" fill="#190D39"></path><path d="M614.467 640.151C616.78 636.222 623.211 624.982 621.989 620.787C621.246 618.427 618.573 619.519 616.349 624.068C611.604 634.966 605.541 645.242 598.295 654.665C597.109 656.193 598.325 667.556 614.467 640.151Z" fill="#190D39"></path><path d="M546.01 664.718C545.7 665.055 545.505 665.481 545.455 665.936C545.405 666.391 545.502 666.85 545.731 667.246C545.961 667.641 546.311 667.953 546.731 668.135C547.151 668.318 547.618 668.361 548.064 668.258C564.501 663.892 557.639 640.452 561.569 631.619C563.628 626.947 568.389 621.265 568.389 617.412C568.387 616.856 568.165 616.323 567.772 615.931C567.378 615.538 566.845 615.318 566.289 615.318C565.938 615.323 565.595 615.412 565.286 615.577C561.821 619.004 559.033 623.054 557.067 627.513C551.692 638.221 555.934 646.658 553.397 654.972C551.834 658.813 549.286 662.175 546.01 664.718Z" fill="#190D39"></path><path d="M496.74 593.895C494.722 592.379 492.716 595.777 494.333 597.394C513.962 616.864 532.323 621.265 536.388 648.806C538.748 664.583 544.695 660.913 542.601 648.063C538.447 622.451 524.606 614.858 496.74 593.895Z" fill="#190D39"></path><path d="M355.576 771.473C363.05 779.689 372.247 786.152 382.51 790.4C382.51 794.465 401.785 834.65 426.966 844.302C427.51 844.405 428.073 844.334 428.574 844.098C429.074 843.862 429.488 843.474 429.755 842.989C430.022 842.504 430.129 841.947 430.06 841.398C429.992 840.849 429.751 840.335 429.374 839.93C412.05 827.343 398.039 810.742 388.54 791.55C394.957 792.753 401.481 793.294 408.01 793.167C467.204 791.285 518.93 751.548 561.41 713.08C562.938 711.723 562.808 710.018 562.413 707.965C562.413 707.965 558.477 681.161 544.925 671.155C540.294 667.745 540.795 668.447 536.972 670.671C499.46 692.183 463.222 714.39 419.155 717.405C404.947 674.335 404.729 658.912 405.473 629.359C405.473 626.215 400.753 627.259 400.357 629.884C397.602 648.989 402.936 697.08 415.308 717.317C410.063 717.582 404.77 717.712 399.437 717.842C396.988 717.842 395.808 721.865 398.605 722.432C446.129 731.96 502.74 697.823 541.344 673.822C550.571 683.754 555.962 696.645 556.554 710.189C517.213 744.728 471.83 780.14 417.904 785.821C392.109 788.618 377.247 786.83 359.671 766.351C335.28 737.937 329.073 689.651 326.932 656.535C324.306 611.901 327.522 581.434 371.695 568.536C391.366 601.576 460.525 606.886 482.025 570.985C504.274 575.882 530.334 596.473 547.863 614.698C552.235 619.07 561.368 610.945 518.924 583.428C515.118 580.932 479.577 559.509 478.349 567.25C478.349 567.25 450.549 608.214 395.289 582.289C374.391 572.454 376.669 561.303 371.689 562.701C327.056 575.209 318.442 602.821 319.928 646.428C321.126 684.518 326.542 739.619 355.576 771.473Z" fill="#190D39"></path><path d="M957.734 769.242C963.711 766.068 1019.5 730.42 1023.31 731.382C1024.53 731.689 1024.05 730.857 1024.13 732.48C1024.22 734.102 974.573 803.734 969.534 811.168C958.431 827.298 952.926 819.912 935.904 812.13C931.839 810.295 929.568 816.501 933.503 818.619C945.698 824.649 958.071 833.305 968.997 822.071C970.313 820.673 1028.54 739.707 1030.2 734.161C1030.56 733.105 1030.64 731.976 1030.45 730.878C1030.26 729.78 1029.79 728.749 1029.09 727.878C1028.4 727.008 1027.49 726.326 1026.46 725.896C1025.44 725.466 1024.32 725.302 1023.21 725.417C1014.11 725.417 963.357 758.817 955.227 765.024C952.879 766.576 955.209 770.582 957.734 769.242Z" fill="#190D39"></path><path d="M808.614 1091.13C834.054 1089.4 861.076 1092.44 887.302 1091.65C892.022 1091.65 901.863 1091.65 899.238 1083.78C897.143 1077.71 889.538 1075.52 884.199 1073.51C865.183 1066.26 847.347 1056.77 828.243 1049.69C824.113 1048.15 820.945 1054.32 825.098 1055.85C845.512 1063.28 864.705 1073.34 885.119 1080.63C894.211 1082.72 895.945 1085.58 884.529 1085.83C856.156 1086.42 827.96 1082.77 799.569 1085.52C783.132 1087.14 777.273 1087.29 775.745 1080.89C775.175 1074.07 775.526 1067.2 776.789 1060.47C776.789 1058.02 773.379 1057.72 772.417 1059.55C768.914 1066.89 767.961 1075.18 769.709 1083.12C772.677 1097.12 797.162 1091.91 808.614 1091.13Z" fill="#190D39"></path><path d="M520.742 921.58C523.303 937.286 579.412 1050.55 589.861 1070.61C606.776 1103.1 613.29 1097.42 604.375 1065.02C590.864 1015.92 578.45 960.591 561.305 913.456C560.255 910.612 555.753 912.317 556.408 915.114C566.987 959.399 585.613 1015.67 598.552 1072.8C579.536 1036.47 545.57 963.854 525.02 919.793C523.922 917.574 520.3 918.89 520.742 921.58Z" fill="#190D39"></path><path d="M387.973 975.495C378.049 1004 368.78 1032.72 359.252 1061.4C347.664 1096.37 347.576 1111.32 369.565 1068.92C386.18 1036.93 411.319 985.861 415.467 976.811C417.001 973.536 411.402 970.686 409.744 973.967C395.167 1003.11 380.683 1032.26 366.291 1061.4C375.554 1033.3 385.218 1005.31 394.091 977.07C395.012 973.359 388.846 972.321 387.973 975.495Z" fill="#190D39"></path><path d="M115.793 1055.2C151.783 968.728 191.774 882.918 231.905 798.141C233.675 794.513 228.318 791.144 226.525 794.813C187.443 874.906 151.86 955.347 115.923 1036.84C147.748 942.231 175.419 850.032 209.651 741.66C210.701 738.38 204.972 736.415 203.839 739.778C168.557 843.565 138.786 949.311 102.548 1053.84C82.7829 1110.89 93.8749 1107.81 115.793 1055.2Z" fill="#190D39"></path><path d="M646.775 311.349C685.356 317.214 733.641 319.131 773.555 321.19C784.133 321.78 785.88 320.27 788.765 311.526C798.207 286.204 799.732 258.61 793.137 232.401C784.959 203.237 763.106 178.121 732.502 172.552C737.296 160.285 741.455 147.78 744.963 135.087C749.377 135.264 753.683 133.693 756.946 130.715C810.862 173.707 866.07 215.054 922.494 254.697C921.679 256.961 921.319 259.364 921.434 261.768C921.549 264.171 922.137 266.529 923.164 268.705C924.192 270.881 925.639 272.832 927.422 274.448C929.206 276.064 931.29 277.312 933.557 278.12C933.875 278.232 934.2 278.339 934.518 278.433C932.288 426.417 933.032 578.507 940.159 726.485C940.159 727.563 940.587 728.597 941.349 729.359C942.112 730.122 943.146 730.55 944.224 730.55C945.302 730.55 946.336 730.122 947.098 729.359C947.861 728.597 948.289 727.563 948.289 726.485C944.159 576.713 941.209 429.473 942.519 279.483C946.104 279.311 949.504 277.843 952.089 275.353C964.597 284.097 977.14 292.404 989.642 300.93C994.014 303.986 998.386 296.8 994.014 293.802C981.341 285.495 968.754 277.086 956.254 268.574C957.012 266.449 957.344 264.195 957.231 261.942C957.117 259.688 956.561 257.479 955.594 255.44C954.627 253.402 953.268 251.573 951.595 250.06C949.921 248.547 947.966 247.378 945.841 246.62C944.764 246.241 943.654 245.966 942.525 245.8C942.525 237.452 942.306 229.097 942.006 220.707C941.926 220.073 941.617 219.49 941.137 219.067C940.658 218.644 940.04 218.411 939.401 218.411C938.761 218.411 938.144 218.644 937.664 219.067C937.185 219.49 936.876 220.073 936.796 220.707C936.206 228.967 935.746 237.275 935.398 245.54C932.531 245.861 929.786 246.874 927.397 248.49C870.562 208.842 815.445 167.07 761.271 124.16C763.263 120.388 763.761 116.005 762.668 111.883C761.575 107.76 758.97 104.2 755.371 101.911L763.33 76.5409C764.817 71.8209 757.695 68.5818 756.209 73.3903C753.447 82.1341 750.651 90.8779 747.896 99.8872C743.588 99.7085 739.352 101.038 735.919 103.645C721.847 92.0579 707.675 80.5647 692.683 70.3754C692.208 70.0451 691.627 69.9048 691.053 69.9822C690.48 70.0597 689.957 70.3492 689.586 70.7936C689.216 71.2381 689.026 71.8052 689.053 72.3831C689.08 72.961 689.323 73.5077 689.733 73.9154C702.652 86.6951 716.332 98.6822 730.697 109.811C729.418 111.754 728.57 113.95 728.211 116.248C727.852 118.547 727.99 120.896 728.616 123.137C729.242 125.378 730.341 127.459 731.838 129.239C733.336 131.02 735.198 132.458 737.299 133.458C732.917 146.07 729.176 158.895 726.089 171.885C707.257 170.4 688.451 175.053 672.485 185.148C656.519 195.244 644.251 210.238 637.518 227.888C628.741 250.677 627.864 275.753 635.029 299.101C638.421 307.201 638.698 310.122 646.775 311.349ZM643.058 239.369C663 170.079 755.542 154.999 782.953 227.958C793.231 255.458 788.765 285.973 779.059 312.948C733.904 312.566 688.802 309.75 643.949 304.511C639.955 280.704 635.76 264.751 643.058 239.393V239.369Z" fill="#190D39"></path><path d="M952.792 837.529C952.792 834.95 945.494 834.337 945.535 837.222C945.535 910.754 945.051 976.025 945.051 1039.45C933.558 1044.7 909.38 1062.23 896.052 1071.15C909.167 1077.36 910.696 1085.75 909.167 1090.99C916.206 1091.44 1023.44 1091.83 1037.56 1090.99C1050.24 1090.26 974.829 1046.98 954.238 1039.2C953.795 974.934 953.406 905.91 952.792 837.529Z" fill="#190D39"></path><path d="M699.149 799.846C722.519 843.506 755.719 1000.45 763.807 1051.87C786.944 1051.32 809.927 1047.95 832.247 1041.84C831.109 1030.78 806.016 888.612 793.166 795.014C783.808 725.07 769.991 723.235 759.536 721.311C730.59 715.889 670.045 806.861 653.212 817.481C666.328 816.39 681.06 818.313 699.899 818.178C698.022 812.673 696.188 807.162 694.435 801.61C694.284 801.006 694.361 800.367 694.651 799.816C694.94 799.265 695.423 798.839 696.006 798.621C696.589 798.402 697.232 798.405 697.813 798.63C698.394 798.855 698.872 799.286 699.155 799.84L699.149 799.846Z" fill="#190D39"></path><path d="M754.533 713.547C781.903 713.547 790.558 736.498 795.148 768.37C802.187 770.027 879.872 799.587 920.228 816.809C925.609 807.711 940.512 772.523 948.643 760.499C933.893 755.036 749.17 641.809 712.572 641.809C655.743 641.809 481.882 804.436 457.049 837.14C529.53 812.301 556.245 816.413 638.427 818.909C667.755 801.115 714.796 713.547 754.533 713.547Z" fill="#190D39"></path><path d="M612.457 561.197C626.027 562.826 640.187 558.312 654.211 559.799C670.697 562.522 686.609 567.988 701.287 575.971C705.311 577.853 705.311 571.599 716.238 564.867C730.233 556.43 756.11 553.02 763.898 544.494C764.895 543.403 763.898 541.173 762.411 541.963C756.828 544.981 750.973 547.468 744.924 549.391C733.159 553.108 709.335 556.825 701.99 569.852C684.113 561.504 670.861 555.864 654.731 554.636C642.234 553.675 621.425 557.828 608.121 556.607C606.032 556.43 603.802 560.153 612.457 561.197Z" fill="#190D39"></path></svg>