<svg xmlns="http://www.w3.org/2000/svg" width="120" height="120" viewBox="0 0 120 120" fill="none"><path d="M79.8546 25.419C78.4236 26.1396 77.343 26.835 76.9668 28.2642C76.8192 28.824 76.818 28.8354 76.647 28.7166C75.819 28.1436 74.985 27.4812 73.929 27.6408C73.4016 27.7206 72.5082 28.0956 72.5304 28.6218C72.4932 28.9806 72.8532 29.0742 73.1064 28.863C75.0798 27.2178 77.1354 31.269 77.595 29.5026C77.7192 29.0268 77.5818 29.0028 77.916 28.152C78.4404 26.8188 80.1618 26.4714 80.5476 25.845C80.7816 25.4652 80.334 25.1772 79.854 25.419H79.8546Z" fill="#190D39"></path><path d="M13.4262 85.0855C12.9498 85.0615 12.0396 85.3771 11.2182 86.2075C10.5114 86.9227 10.8636 87.4297 10.4886 87.2425C9.75176 86.8747 8.90156 86.3965 8.01416 86.4127C6.38816 86.4427 6.77456 87.6919 7.42196 87.3487C8.16896 86.9521 9.50516 87.6961 10.2324 88.0933C11.931 89.0215 10.9572 87.2845 12.2532 86.4589C12.7932 86.1151 13.2714 85.8829 13.5966 85.6279C13.8228 85.4503 13.8474 85.1065 13.4262 85.0855Z" fill="#190D39"></path><path d="M25.2767 81.2977C25.1783 81.4477 25.1729 81.4411 25.0031 81.3589C23.6129 80.6863 23.4474 80.5279 22.2065 80.4067C21.9281 80.4703 21.4799 80.4967 21.5177 80.8789C21.5423 81.1279 21.8591 81.2143 22.1087 81.2215C24.2369 81.2785 25.1291 83.2843 25.9325 81.8827C26.5895 80.7367 29.1401 79.5211 29.0627 79.3159C28.7705 78.5389 26.1269 80.0059 25.2767 81.2977Z" fill="#190D39"></path><path d="M92.1029 28.4496C90.6173 29.0196 90.4211 29.3484 89.8361 30.2994C89.1473 29.8608 88.3937 29.3454 87.4727 29.4624C86.4017 29.598 86.8679 30.741 87.4751 30.3348C88.0001 29.9838 89.5073 31.1682 89.7023 31.2834C90.0491 31.4886 90.3785 31.3722 90.5273 30.9948C91.2329 29.202 92.2763 29.5872 92.7467 28.9404C92.9765 28.6242 92.6669 28.2342 92.1029 28.4508V28.4496Z" fill="#190D39"></path><path d="M93.837 19.437C92.451 20.4804 92.6298 21.0474 92.4276 20.904C91.7136 20.3982 91.2702 20.0292 90.6204 19.9716C90.018 19.959 89.7396 20.3274 89.892 20.6424C90.1026 21.0786 90.2604 20.601 90.882 20.8908C91.938 21.3834 92.9274 22.9002 93.2652 21.4866C93.5634 20.238 95.3658 19.7046 95.3784 19.6986C95.9502 19.4046 95.2482 18.3738 93.8376 19.4364L93.837 19.437Z" fill="#190D39"></path><path d="M14.9483 75.6006C14.2823 75.2256 13.6547 74.8122 12.8051 74.9268C12.3251 74.9916 12.2339 75.5742 12.8213 75.609C14.5535 75.7122 15.1487 77.6232 15.8093 75.8274C16.0517 75.1686 16.9301 74.1462 17.1329 73.9242C18.3629 72.5748 18.4013 72.8094 18.6353 72.582C18.9401 72.2856 16.9331 71.976 14.9489 75.6L14.9483 75.6006Z" fill="#190D39"></path><path d="M67.2815 98.3094C67.2815 95.904 67.4015 93.9672 69.0875 92.2038C71.2859 89.9034 72.8753 89.4372 74.9321 89.4834C77.7011 89.5458 79.9475 90.4194 81.7001 92.5638C83.3147 94.5396 82.9925 94.8408 83.2961 94.2372C84.8879 91.0728 87.7313 89.0922 90.3755 88.56C94.5515 87.72 100.142 91.6956 99.8831 95.7816C99.7757 97.4802 98.0585 100.881 98.6057 100.899C101.404 100.991 103.478 101.421 106.725 104.654C107.396 105.323 108.369 106.715 108.506 107.632C108.592 108.208 108.887 108.157 111.076 108.71C113.68 109.369 114.743 109.537 115.771 110.555C116.623 111.399 116.248 112.579 115.335 113.128C113.309 114.346 111.323 114.415 109.192 114.382C102.035 114.272 99.3053 114.662 81.2225 114.071C72.2711 113.778 80.6225 113.968 65.9765 113.511C46.3607 112.898 47.6729 113.536 45.0533 113.156C43.1825 112.885 40.4705 112.36 41.1353 110.59C41.5451 109.501 43.4597 109.213 44.7881 108.835C47.0123 108.201 47.5235 107.832 50.8001 107.785C52.2437 107.764 53.8667 107.973 54.0527 106.537C54.2573 104.962 54.0383 104.483 54.5915 103.062C55.0235 101.952 56.2973 100.405 58.1831 99.4992C61.5257 97.893 64.2665 99.9912 66.6383 101.423C67.0829 101.692 67.1555 101.852 67.2083 101.672C67.2263 101.611 67.3193 98.3076 67.2809 98.3076L67.2815 98.3094ZM67.9913 101.414C67.9847 101.717 67.9199 102.008 67.8539 102.3C67.6403 103.238 66.6353 102.378 66.1307 102.073C62.8619 100.096 62.2931 99.6786 60.1973 99.7908C58.1639 99.9 55.8185 101.863 55.2437 103.763C54.5765 105.968 55.8587 108.285 51.9083 108.451C50.1527 108.525 49.9661 108.349 48.3977 108.604C46.4459 108.921 46.2203 109.254 42.9143 110.102C41.9507 110.349 40.8935 111.262 42.9941 111.894C46.4945 112.948 49.3757 112.181 54.4511 112.44C54.5675 112.446 54.4781 112.649 72.0863 112.84C72.1001 112.84 92.6759 114.044 107.771 113.596C108.649 113.569 113.445 114.075 115.32 112.292C115.598 112.027 115.696 111.415 115.337 111.054C114.151 109.86 112.76 109.955 108.683 108.838C107.728 108.577 107.902 107.8 107.494 107.02C106.687 105.476 105.764 104.792 105.006 104.106C100.592 100.112 97.1645 102.758 97.5869 100.834C98.4893 96.7266 100.763 95.1684 96.8759 91.3554C95.9621 90.4596 95.2427 90.1932 93.5879 89.5386C92.1635 88.9752 90.3101 89.0166 88.2653 90.1662C83.6693 92.7498 84.1775 95.7102 83.0603 95.6034C82.1843 95.52 81.0257 90.6534 75.7487 90.3012C75.2849 90.27 73.9667 90.2508 73.3541 90.3648C71.7809 90.6576 70.2245 92.0478 69.3191 93.1668C67.8653 94.962 68.0915 96.6084 67.9907 101.414L67.9913 101.414Z" fill="#190D39"></path><path d="M81.6294 43.7065C84.15 43.6795 85.9062 43.8127 88.2354 46.4455C89.4864 47.8597 89.409 48.2635 89.5638 47.9887C92.7786 42.2905 94.5552 41.4433 98.9238 41.1979C103.561 40.9375 106.401 45.5119 106.387 48.2161C106.354 54.6169 103.874 50.9797 109.536 53.1085C111.044 53.6755 112.283 54.6955 112.187 56.3053C112.129 57.2701 111.666 57.9181 111.023 59.0131C110.699 59.5651 110.438 59.2621 113.732 60.3817C114.155 60.5251 115.642 61.0465 116.185 61.3387C117.186 61.8763 117.156 62.5135 116.678 62.8123C115.013 63.8509 111.749 63.3181 108.974 63.4483C106.591 63.5605 79.7268 63.3235 76.3476 63.0409C75.3318 62.9557 73.4058 63.0457 73.2048 63.0433C66.0792 62.9557 60.8034 63.6667 59.3322 62.2561C58.9974 61.9351 58.9812 61.5253 59.3136 61.1941C59.5086 60.9991 59.7486 60.8755 59.9862 60.7507C62.0508 59.6635 64.0776 59.2255 65.151 58.9561C65.9472 58.7563 66.1446 58.8859 66.057 58.6327C65.6598 57.4819 65.9124 55.9597 66.5856 54.8809C67.668 53.1469 70.9284 52.4791 73.5036 53.7985C74.5596 54.3397 74.3196 54.3121 73.9422 52.6087C73.038 48.5305 76.3032 43.7635 81.63 43.7059L81.6294 43.7065ZM113.8 62.7463C114.755 62.7487 116.5 62.4163 116.124 62.1427C115.99 62.0455 115.855 61.9417 115.704 61.8817C111.148 60.0637 109.713 60.3409 110.06 59.2621C110.408 58.1839 113.314 55.4821 109.397 53.8759C108.145 53.3623 106.367 53.0407 105.535 53.0623C105.093 53.0737 104.791 52.7749 104.93 52.2937C106.111 48.2359 105.844 46.0495 102.921 43.2535C102.202 42.5665 101.159 42.2701 100.164 42.0787C99.1692 41.8873 99.0996 41.9701 97.422 42.1327C90.8616 42.7675 90.2574 51.5737 88.8858 48.7771C88.3608 47.7073 87.2988 46.4065 85.5804 45.2557C84.588 44.5909 83.532 44.6035 82.5174 44.5261C80.0058 44.3347 78.2454 44.7541 76.044 47.2153C74.883 48.5137 74.298 50.6755 74.793 52.7491C74.9652 53.4715 74.9736 54.2251 75.2142 54.9337C75.2664 55.0873 75.1992 55.2211 75.0702 55.3159C74.799 55.5157 74.5602 55.2571 74.4342 55.1707C71.4528 53.1283 66.9774 53.4775 66.684 56.9503C66.636 57.5149 66.5952 58.0903 66.7704 58.6513C67.1886 59.9923 63.711 59.2201 59.841 61.5703C59.7096 61.6501 59.7084 61.7353 59.841 61.7977C62.2776 62.9467 67.9674 61.9657 79.716 62.4235C89.097 62.7889 113.766 62.7457 113.8 62.7457V62.7463Z" fill="#190D39"></path><path d="M8.16476 113.149C33.5646 113.149 32.271 113.991 33.7494 113.112C34.8462 112.459 32.0274 111.572 30.6042 111.216C27.1578 110.354 26.6166 110.855 26.199 108.71C25.8282 106.807 25.9056 105.877 24.633 105.185C24.0384 104.861 22.8132 104.54 21.9336 104.589C20.5692 104.665 19.9284 105.076 18.3096 106.078C17.5674 106.537 17.1282 107.042 16.6824 106.363C15.9918 105.31 15.7062 100.361 10.2204 101.095C7.64456 101.44 6.34736 104.536 5.52895 103.467C5.34415 103.226 5.15035 102.371 4.41415 101.944C3.66355 101.508 3.33055 101.595 3.08455 101.309C2.52475 100.659 4.87375 100.624 5.78755 102.186C6.06776 102.665 5.99635 102.763 6.31016 102.506C8.17076 100.984 8.62976 100.253 11.3178 100.225C12.8526 100.209 14.337 100.763 15.4254 102.008C16.4988 103.237 16.5264 103.698 16.9572 104.949C17.256 105.815 17.2242 105.83 17.4348 105.701C19.0008 104.744 19.8852 104.117 21.0276 103.918C22.2948 103.698 23.6142 103.903 24.678 104.344C26.0916 104.93 26.463 105.83 26.7 107.061C27.5082 111.256 26.7792 108.931 32.4636 110.961C33.6846 111.397 34.236 111.652 34.6518 112.373C34.9272 112.85 34.7628 113.522 33.6972 113.945C32.2026 114.539 30.093 114.2 29.0496 114.154C22.1928 113.852 4.79215 114.193 3.45115 113.827C3.26395 113.776 3.17755 113.416 3.47215 113.343C4.18615 113.167 8.16476 113.137 8.16476 113.149Z" fill="#190D39"></path><path d="M47.3051 69.5358C47.8661 63.81 47.5133 63.9606 47.8109 63.6246C56.4125 53.9244 64.1027 45.5166 65.2175 32.517C65.8937 24.639 62.3057 17.6364 58.2803 14.9532C56.6723 13.8792 55.9421 13.2426 54.0953 12.513C53.6309 12.3294 53.4905 12.1806 53.2109 11.8854C51.1697 9.7236 47.3717 7.6008 43.8461 7.4292C43.3547 7.4058 43.3361 7.1154 41.6525 6.4176C40.1015 5.7744 37.7951 5.3214 35.9747 5.9766C35.7089 6.0726 35.6213 6.0378 35.3867 5.946C33.5585 5.2278 30.9323 5.3718 29.1923 7.0104C29.0399 7.1544 28.9865 7.1982 28.8911 7.185C28.1405 7.071 27.2999 7.0848 26.4605 7.2252C21.0941 8.1222 19.1159 10.7796 18.1649 12.0564C17.8799 12.4392 17.6741 12.7152 17.5151 12.7584C16.6523 12.993 15.5129 13.824 14.7995 14.4654C10.8695 17.988 9.81294 22.851 9.31254 23.3616C6.66894 26.067 4.87913 30.0486 4.52573 34.0128C4.33253 36.192 4.46393 36.1404 4.45913 36.495C4.39373 41.8338 8.21814 48.2838 11.5127 52.1856C18.5171 60.4794 31.1597 65.8386 32.0399 67.5576C35.6903 74.6952 36.7517 75.6324 36.5099 76.0068C36.1205 76.6134 36.6905 77.5998 37.2707 78.0402C37.4639 78.1866 37.4585 78.2634 37.4291 78.6888C37.3403 79.9632 37.4153 82.0356 37.5311 83.4192C37.5881 84.0996 37.5839 84.123 37.3823 84.2628C36.8087 84.6606 36.5621 85.4556 37.0199 86.0604C37.1117 86.1816 37.0973 86.196 36.9551 86.3358C36.3371 86.9442 36.4871 87.2838 35.1815 88.521C34.6655 89.0094 34.3247 89.3328 34.4471 90.1734C34.4927 90.4854 34.9337 90.9708 35.6111 91.0308C36.3461 91.0962 36.8927 90.4398 37.3469 89.763C37.2935 93.0612 37.1735 94.3338 38.4287 94.8222C40.9349 95.7966 42.8477 95.1816 45.0749 94.5996C49.9073 93.336 53.7251 92.3418 54.5105 90.8478C54.6851 90.516 54.7061 90.1614 54.5729 89.7948C54.2699 88.9596 53.7161 87.8316 53.7401 87.6882C54.6941 87.4428 55.0673 86.301 54.7097 85.5996C53.5205 83.2674 51.8807 83.6406 51.9263 83.0382C51.9917 82.1844 51.3407 81.2856 51.0431 81.1692C50.2265 80.85 50.2097 80.9598 50.1131 80.7402C48.2195 76.4184 47.6267 76.0152 47.7791 75.8064C48.1487 75.3012 47.9381 74.4666 47.6705 74.0346C47.1149 73.1394 46.9565 73.3146 46.9655 73.1718C47.0039 72.6096 47.1929 70.6536 47.3021 69.5376L47.3051 69.5358ZM37.4207 86.7348C37.4081 88.1448 37.1789 89.646 35.7167 90.2898C34.8011 90.105 35.0441 89.4492 35.7803 88.8864C36.3761 88.4316 36.7433 87.7938 37.0121 87.3282C37.1645 87.063 37.3001 86.8278 37.4207 86.7348ZM43.6919 83.6868C37.6055 85.3104 38.0321 86.1222 37.7213 85.6926C37.6325 85.5696 37.5473 85.4544 37.5539 85.2954C37.5761 84.81 38.0729 84.5262 38.4857 84.3732C44.4041 82.1832 46.2137 82.002 49.4189 81.6528C49.8257 81.6084 50.5805 81.5268 50.9081 82.1478C51.0035 82.3284 51.1547 82.5654 51.1763 82.8102C49.3583 82.2378 45.5507 83.1906 43.6913 83.6862L43.6919 83.6868ZM38.1935 78.6864C38.2013 78.6834 38.2469 78.669 38.4671 78.7374C40.2323 79.2894 40.0535 78.315 40.2779 79.743C40.4741 80.9862 40.5725 81.4506 40.6955 82.008C40.9769 83.2764 40.8029 82.4112 38.3501 83.736C38.2739 83.778 38.2829 78.885 38.1935 78.6864ZM41.5721 78.6786C44.5265 78.054 44.4197 77.6922 44.5157 77.9706C45.0041 79.404 45.0809 79.7688 45.7061 81.2298C45.8441 81.552 45.7769 81.147 41.6681 82.4304C41.5025 82.4826 41.6171 82.7778 40.9403 78.9882C40.9348 78.8712 41.1454 78.768 41.5721 78.6786ZM49.3307 80.8614C49.1567 80.8782 48.3749 80.8644 46.8683 81.1602C46.7981 81.1728 46.7033 81.1698 46.6157 81.1818C46.4735 81.2016 46.4735 81.2022 46.4297 81.0768C46.1171 80.1828 45.2567 77.7126 45.2339 77.6556C45.1535 77.4612 46.2431 77.1288 47.1815 76.5588C47.2421 76.5864 47.2583 76.6716 48.5777 79.2786C49.1411 80.3922 49.3391 80.784 49.3307 80.8614ZM47.1773 75.408C47.1455 75.3912 47.1125 75.369 47.0735 75.3432C46.6037 75.0348 45.6251 74.3922 40.0133 76.3212C38.1539 76.9602 38.2277 77.661 38.0927 77.6478C37.7465 77.6142 36.8369 76.4256 37.3331 76.056C38.5499 75.1518 43.7141 73.632 46.2539 73.746C46.7201 73.7664 47.4365 74.616 47.1773 75.408ZM14.0933 25.896C14.2277 34.5864 19.4285 45.6378 23.8415 52.4604C25.0289 54.2958 29.9123 61.1112 32.2433 63.7968C32.2715 63.8298 32.3243 63.8904 32.3249 63.9072C32.3195 63.9318 32.1275 64.0752 32.1077 64.0902C31.9619 64.2012 31.8107 64.3152 31.7039 64.4856C31.0175 64.4808 19.4207 53.0934 15.2633 46.6566C12.4289 42.2682 10.8155 38.6208 10.0319 34.8306L10.0289 34.8192C7.51434 22.629 15.4787 14.1396 16.9685 13.8606C16.6937 14.8716 13.9637 17.4876 14.0933 25.896ZM45.0923 67.5606C45.1337 69.5166 45.1583 70.4094 45.0701 72.9318C45.0685 72.972 44.9411 73.0104 44.6879 73.0482C44.6723 73.0506 43.6331 73.2204 43.6175 73.2186C43.5833 73.1358 43.6859 70.2228 43.3085 66.7506C43.3019 66.6906 43.2191 65.9826 43.2677 65.9262C43.2797 65.9178 43.3595 65.922 43.3745 65.9226C44.0249 65.9472 44.4995 65.7168 45.0497 65.5056C45.0635 65.5704 45.0485 65.4996 45.0923 67.5606ZM41.5157 61.3722C41.8211 61.5732 41.9765 61.4244 42.0023 61.5972C42.5717 65.4402 42.5435 65.3958 42.3623 65.5338C41.7209 66.0216 40.7681 66.5052 39.9629 66.471C38.5733 66.4236 38.6483 66.642 38.1965 65.1762C37.2503 62.109 37.0697 62.241 37.2431 62.0604C38.6093 60.639 40.0469 60.4074 41.5157 61.3722ZM38.8751 67.1124C39.9299 67.1412 40.3985 67.4748 42.3443 66.4398C42.4031 66.4086 42.4493 66.3732 42.4865 66.3444C42.5555 66.291 42.5549 66.1758 42.6509 67.3434C42.8219 69.4074 42.9743 70.6968 43.0787 73.0134C43.0973 73.4358 43.0883 73.3242 41.6681 73.6686C41.0183 73.8252 41.0225 73.875 40.9745 73.7688C40.9307 73.6734 38.8805 67.1784 38.8745 67.1118L38.8751 67.1124ZM36.1703 67.8552C37.5587 67.797 37.9571 67.1388 38.0639 67.1316C38.0777 67.1412 40.0421 73.089 40.3925 73.9896C40.2935 74.0604 40.3043 74.055 40.0409 74.1342C38.3321 74.6496 38.3939 74.7594 38.3159 74.5896C36.3551 70.3092 35.3381 68.0484 35.2145 67.6992C35.3171 67.704 35.5883 67.8762 36.1703 67.8552ZM37.6841 66.5508C36.9107 66.9906 35.9039 67.4256 34.9715 66.8736C34.7279 66.7284 34.8005 66.7488 33.6167 64.2156C33.5495 64.074 33.6041 64.1874 34.0919 63.4998C34.5527 62.8518 35.7119 61.8972 36.4325 62.187C36.5255 62.2242 36.5801 62.4036 37.2701 64.5876C37.8503 66.4242 37.9061 66.4236 37.6835 66.5502L37.6841 66.5508ZM44.9099 64.815C44.3399 65.112 44.0951 65.1186 43.7255 65.1192C43.1549 65.1204 43.1777 65.1558 43.1285 64.581C43.0403 63.5592 42.9329 63.072 42.7523 62.157C42.5819 61.3038 42.5747 61.2972 42.6365 61.2684C43.5089 60.8622 43.8467 61.0716 44.3261 61.446C45.1055 62.055 44.9531 64.0668 45.0263 64.5534C45.0539 64.7322 45.0491 64.7418 44.9099 64.815ZM41.6807 60.564C40.1183 59.4594 38.2025 60.0234 37.0907 61.1682C36.4343 60.5838 29.9303 43.9644 26.9687 30.5436C25.8287 25.3818 25.1663 17.4312 27.0503 12.0126C27.5483 10.5774 28.2533 9.3822 29.4077 8.0166C30.1691 7.1142 31.7501 6.372 33.4409 6.417C36.9311 6.4956 39.1073 10.056 40.4405 12.7272C42.6635 17.1816 43.4237 23.9274 43.8023 28.614C44.9789 43.1748 41.9987 59.5002 41.6807 60.564ZM31.7693 65.8764C31.7783 65.7858 31.8587 65.1078 32.8199 64.4868C32.9117 64.4274 33.0047 64.365 33.0281 64.3728C33.0809 64.3884 34.1111 66.8718 34.1219 66.9162C34.0541 66.9354 33.7295 66.9318 33.6629 66.933C33.2039 66.9408 32.2955 66.7458 31.9601 66.4248C31.8113 66.282 31.7471 66.0978 31.7693 65.8764ZM34.5371 67.9014C35.5883 70.4628 37.4369 74.0232 37.8803 74.8938C37.7897 74.9694 37.7987 74.9586 37.1273 75.321C36.9755 75.4032 36.9881 75.4224 36.4757 74.4384C36.1613 73.8354 33.1067 68.2134 32.8031 67.599C34.5371 67.866 34.3175 67.365 34.5365 67.9008L34.5371 67.9014ZM46.7033 64.0944C46.3661 64.4358 45.6917 64.533 45.6785 64.3884C45.6653 64.2444 45.7199 64.206 45.5789 63.1044C45.4727 62.2782 45.4865 62.3262 45.5573 62.3424C46.3673 62.5374 46.2899 62.736 46.6511 63.1224C46.8887 63.3762 46.8851 63.9102 46.7033 64.0944ZM46.3691 72.9942C46.1735 72.9876 46.0241 72.9876 45.9101 72.9876C45.7571 72.9876 45.6365 72.9876 45.6179 72.9684C45.5807 72.9054 45.6731 71.5332 45.6875 71.3724C45.7397 70.7898 45.7847 70.2864 45.7373 65.352C45.7319 64.7958 46.1687 65.3562 47.0249 64.6554C47.0849 64.617 46.5893 72.5334 46.3691 72.9942ZM46.5725 62.124C46.5125 62.1042 46.2971 61.737 45.7289 61.6392C45.7037 61.635 45.6737 61.6296 45.6569 61.6248C45.6881 61.5312 45.7505 61.6602 47.9849 55.9326C51.1367 47.8536 52.6817 43.14 53.6633 35.0214C54.1583 30.9324 54.0839 24.474 52.7525 19.9572C51.0551 14.1966 48.8657 12.0252 46.0937 9.276C45.6341 8.82 45.3023 8.6208 45.0755 8.4108C51.6089 10.2708 56.0585 15.2394 57.9161 21.798C59.1089 26.0094 58.8665 29.4324 58.8557 29.5392C58.8557 29.5392 58.8527 29.5512 58.8527 29.5572C58.8527 41.6976 52.7693 51.7032 49.1345 57.6816C46.5245 61.974 46.6955 62.061 46.5719 62.1246L46.5725 62.124ZM53.2601 89.118C52.7687 88.9572 52.1567 88.7562 46.4363 90.1452C40.7081 91.5372 38.9303 92.3976 38.3465 92.6808C38.2811 92.7126 38.2217 92.7414 38.1851 92.7558C38.1851 92.712 38.1917 92.6568 38.1863 92.604C38.0537 87.5814 38.1545 89.793 38.1155 86.88C38.1083 86.4138 38.3423 86.2188 40.4951 85.5156C40.4453 85.7124 40.1141 86.2236 39.7379 87.1266C39.2309 88.3446 40.1285 89.3496 41.2061 89.1762C41.9297 89.0616 42.7163 88.1154 42.6863 87.0222C42.6479 85.5516 42.1949 85.1178 42.2663 84.9744C42.2969 84.9144 42.3923 84.9138 44.0609 84.444C45.6983 83.9826 45.5441 84.0336 45.4955 84.207C45.4661 84.3072 45.4625 84.3318 45.4445 84.4254C45.2777 85.2834 45.0245 86.58 45.5351 87.342C45.8789 87.8544 46.5461 87.8946 47.0561 87.7614C48.5291 87.3768 48.4997 84.9216 47.6843 83.6046C47.9189 83.5182 50.9651 83.1264 51.3011 83.8812C51.4055 84.1158 53.2979 88.5438 53.5139 89.184C53.4179 89.1696 53.3435 89.1456 53.2601 89.118ZM46.4075 87.0852C45.7943 86.937 45.9389 85.8138 46.0157 85.2102C46.1819 83.9064 46.1621 83.9154 46.2869 83.8782C46.7159 83.748 46.9247 83.7192 47.1233 83.9922C47.8835 85.044 47.7623 87.4128 46.4075 87.0852ZM41.9579 86.9598C41.9333 87.5016 41.9279 87.8568 41.3411 88.3218C40.8167 88.7364 40.1435 88.0926 40.3367 87.6216C41.0477 85.8858 41.1395 85.944 41.2487 85.3476C41.2607 85.2804 41.3021 85.218 41.3699 85.218C41.6879 85.218 41.9873 86.4048 41.9579 86.9598ZM52.1645 84.1128C53.2313 84.6156 53.8697 85.2756 54.1133 86.1282C54.1019 86.499 53.8241 86.9142 53.5031 87.0372C53.4359 87.0636 53.4377 87.0798 53.3423 86.8296C53.2187 86.505 52.1687 84.1266 52.1639 84.1134L52.1645 84.1128Z" fill="#190D39"></path></svg>