<svg width="42" height="40" viewBox="0 0 42 40" fill="none" xmlns="http://www.w3.org/2000/svg">
<path d="M42 11.4629V0C34.6638 0 27.5109 2.47598 22.3755 6.78602L21 7.88646L19.6244 6.78602C14.3974 2.47598 7.33624 0 0 0V11.4629C0 14.5808 5.6856 17.5153 7.51966 19.9912C5.6856 22.4672 0 25.4017 0 28.5196V39.9825C7.33624 39.9825 14.4891 37.5065 19.6244 33.1965L21 32.0961C17.4236 29.9869 15.2227 26.2271 15.2227 22.0087V17.9738C15.2227 13.8472 17.4236 9.99563 21 7.88646C24.5764 9.99563 26.7773 13.8472 26.7773 17.9738V22.0087C26.7773 26.1354 24.5764 29.9869 21 32.0961L22.3755 33.1965C27.6026 37.5065 34.6638 39.9825 42 39.9825V28.5196C42 25.4017 36.3144 22.4672 34.4803 19.9912C36.3144 17.5153 42 14.5808 42 11.4629Z" fill="url(#paint0_linear_7_7)"/>
<defs>
<linearGradient id="paint0_linear_7_7" x1="-5.43594e-07" y1="39.9913" x2="41.3422" y2="-0.677424" gradientUnits="userSpaceOnUse">
<stop offset="0.189061" stop-color="#F8CC75"/>
<stop offset="0.811088" stop-color="#AAC7E2"/>
</linearGradient>
</defs>
</svg>
